<?xml version="1.0" encoding="utf-8"?>
<!-- Generator: Adobe Illustrator 16.0.0, SVG Export Plug-In . SVG Version: 6.00 Build 0)  -->
<!DOCTYPE svg PUBLIC "-//W3C//DTD SVG 1.1//EN" "http://www.w3.org/Graphics/SVG/1.1/DTD/svg11.dtd">
<svg version="1.1" id="Layer_1" xmlns="http://www.w3.org/2000/svg" xmlns:xlink="http://www.w3.org/1999/xlink" x="0px" y="0px"
	 width="200px" height="55px" viewBox="0 0 200 55" enable-background="new 0 0 200 55" xml:space="preserve">
<g>
	<g>
		<path fill="#D98933" d="M154.6,28.826l0.598-0.887c-1.139-0.267-1.872-1.315-1.872-2.792v-0.073c0-1.711,1.063-2.873,2.558-2.873
			c0.84,0,1.381,0.307,1.815,0.751l-0.701,0.903c-0.34-0.346-0.694-0.564-1.154-0.564c-0.758,0-1.315,0.702-1.315,1.8v0.023
			c0,1.122,0.582,1.808,1.332,1.808c0.453,0,0.783-0.21,1.162-0.589l0.701,0.832c-0.468,0.483-0.959,0.79-1.703,0.839l-0.459,1.209
			L154.6,28.826z"/>
		<path fill="#D98933" d="M160.122,22.25h1.112l2.025,5.68h-1.21l-0.419-1.226h-1.945l-0.41,1.226h-1.18L160.122,22.25z
			 M161.275,25.671l-0.612-1.839l-0.621,1.839H161.275z"/>
		<path fill="#D98933" d="M163.482,25.147v-0.073c0-1.67,1.105-2.873,2.64-2.873c0.79,0,1.331,0.227,1.847,0.662l-0.691,0.912
			c-0.301-0.275-0.631-0.484-1.172-0.484c-0.807,0-1.418,0.734-1.418,1.775v0.064c0,1.162,0.635,1.815,1.467,1.815
			c0.33,0,0.63-0.081,0.84-0.234v-1h-1.025v-1.017h2.141v2.614c-0.519,0.388-1.172,0.703-2.01,0.703
			C164.58,28.012,163.482,26.914,163.482,25.147z M164.652,20.75h0.76c0.08,0.242,0.25,0.379,0.597,0.379
			c0.339,0,0.517-0.137,0.597-0.379h0.76c-0.057,0.726-0.598,1.113-1.355,1.113C165.251,21.863,164.71,21.476,164.652,20.75z"/>
		<path fill="#D98933" d="M169.111,22.283h2.123c0.652,0,1.179,0.185,1.533,0.541c0.305,0.306,0.477,0.75,0.477,1.307v0.032
			c0,0.855-0.43,1.396-1.051,1.67l1.203,2.097h-1.34l-1.041-1.855h-0.732v1.855h-1.172V22.283L169.111,22.283z M171.146,25.042
			c0.597,0,0.918-0.338,0.918-0.846v-0.009c0-0.565-0.347-0.848-0.941-0.848h-0.84v1.703H171.146z"/>
		<path fill="#D98933" d="M174.217,22.283h1.17v5.647h-1.17V22.283z"/>
	</g>
	<g>
		<path fill="#D98933" d="M154.031,30.29h1.227l1.26,2.291l1.241-2.291h1.235v5.646h-1.146v-3.604l-1.33,2.332h-0.023l-1.325-2.315
			v3.59h-1.138V30.29L154.031,30.29z"/>
		<path fill="#D98933" d="M160.129,30.29h3.641v1.058h-2.479v1.217h2.18v1.059h-2.18v1.258h2.51v1.057h-3.672V30.29z"/>
		<path fill="#D98933" d="M164.725,30.29h2.123c0.652,0,1.178,0.185,1.532,0.541c0.308,0.306,0.476,0.75,0.476,1.306v0.032
			c0,0.856-0.428,1.396-1.047,1.671l1.2,2.098h-1.34l-1.04-1.854h-0.734v1.854h-1.17V30.29L164.725,30.29z M166.758,33.049
			c0.598,0,0.92-0.339,0.92-0.846v-0.01c0-0.563-0.348-0.848-0.943-0.848h-0.84v1.702L166.758,33.049L166.758,33.049z"/>
		<path fill="#D98933" d="M169.789,30.29h1.17v2.437l1.848-2.437h1.381l-1.896,2.396l1.977,3.252h-1.371l-1.412-2.323l-0.524,0.661
			v1.662h-1.17L169.789,30.29L169.789,30.29z"/>
		<path fill="#D98933" d="M174.9,30.29h3.64v1.058h-2.478v1.217h2.181v1.059h-2.181v1.258h2.51v1.057H174.9V30.29z"/>
		<path fill="#D98933" d="M179.343,35.043l2.574-3.713h-2.493v-1.04h3.938v0.896l-2.573,3.711h2.573v1.041h-4.018L179.343,35.043
			L179.343,35.043z"/>
		<path fill="#D98933" d="M184.375,30.29h1.169v5.646h-1.169V30.29z M184.407,28.909h1.112v0.977h-1.112V28.909z"/>
	</g>
	<path fill="#06514D" d="M198.225,22.881c-0.004-1.745-1.022-3.375-2.684-3.88c-0.872-0.264-1.066-0.74-1.234-1.492
		c-2.609-11.607-14.759-18.683-26.094-15.068c-6.074,1.938-10.294,5.686-12.681,11.082l1.919,2.465
		c2.824-7.7,10.479-12.138,17.115-11.619c0.883,0.069,1.77,0.123,2.64,0.266c7.257,1.183,13.146,6.942,14.539,14.188
		c0.062,0.323-0.017,0.525-0.285,0.734c-1.019,0.792-1.614,1.839-1.622,3.142c-0.021,4.171-0.016,8.342-0.012,12.514
		c0.001,1.104,0.415,2.046,1.166,2.854c0.088,0.092,0.14,0.314,0.088,0.42c-0.959,1.912-2.152,3.587-4.162,4.592
		c-3.012,1.509-6.154,2.669-9.338,3.744c-0.145,0.05-0.383-0.025-0.518-0.123c-0.742-0.529-1.562-0.811-2.459-0.646
		c-1.351,0.249-2.693,0.539-4.025,0.869c-1.723,0.428-2.758,2.212-2.367,3.984c0.385,1.748,2.12,2.89,3.878,2.535
		c1.228-0.244,2.451-0.5,3.671-0.773c1.471-0.333,2.572-1.646,2.579-3.111c0.001-0.394,0.162-0.505,0.485-0.627
		c2.381-0.902,4.764-1.802,7.127-2.753c2.988-1.202,5.511-2.968,6.9-6.012c0.268-0.587,0.565-1.026,1.308-0.801
		c0.013,0.005,0.028,0,0.045-0.001c2.399-0.192,4.022-1.961,4.022-4.381c0-1.985,0-3.974,0-5.961
		C198.227,26.976,198.23,24.928,198.225,22.881z"/>
	<g>
		<path fill="#06514D" d="M13.289,34.489v-1.312H5.411c-1.604,0-2.479-0.992-2.479-2.188c0-0.672,0.233-1.4,0.934-2.48l6.564-9.978
			c1.021-1.517,2.129-2.305,4.259-2.305c2.509,0,3.91,1.75,3.91,3.997v8.023h0.962c1.692,0,2.743,0.7,2.743,2.48
			c0,1.779-1.109,2.45-2.743,2.45h-0.962v1.255c0,1.779-0.992,2.917-2.655,2.917S13.289,36.24,13.289,34.489z M13.143,28.246
			l0.146-5.864l-0.029-0.263l-3.588,6.126H13.143z"/>
		<path fill="#06514D" d="M33.04,34.489v-1.312h-7.877c-1.605,0-2.48-0.992-2.48-2.188c0-0.672,0.233-1.4,0.934-2.48l6.564-9.978
			c1.021-1.517,2.13-2.305,4.26-2.305c2.509,0,3.909,1.75,3.909,3.997v8.023h0.963c1.692,0,2.743,0.7,2.743,2.48
			c0,1.779-1.109,2.45-2.743,2.45H38.35v1.255c0,1.779-0.992,2.917-2.655,2.917C34.032,37.349,33.04,36.24,33.04,34.489z
			 M32.894,28.246l0.146-5.864l-0.029-0.263l-3.588,6.126H32.894z"/>
		<path fill="#06514D" d="M52.792,34.489v-1.312h-7.877c-1.605,0-2.48-0.992-2.48-2.188c0-0.672,0.233-1.4,0.934-2.48l6.564-9.978
			c1.021-1.517,2.13-2.305,4.26-2.305c2.509,0,3.909,1.75,3.909,3.997v8.023h0.963c1.692,0,2.743,0.7,2.743,2.48
			c0,1.779-1.109,2.45-2.743,2.45h-0.963v1.255c0,1.779-0.992,2.917-2.655,2.917C53.784,37.349,52.792,36.24,52.792,34.489z
			 M52.646,28.246l0.146-5.864l-0.029-0.263l-3.588,6.126H52.646z"/>
		<path fill="#06514D" d="M71.669,34.694c0-0.876,0.612-1.838,1.779-3.034l5.251-5.369c1.05-1.05,1.896-2.363,1.896-3.559
			c0-1.109-0.642-1.546-1.576-1.546s-1.721,0.671-1.983,2.013c-0.205,1.138-1.051,1.984-2.393,1.984
			c-1.517,0-2.509-1.167-2.509-2.597c0-3.53,2.509-6.739,7.293-6.739c4.347,0,6.973,2.655,6.973,6.448
			c0,3.326-2.101,5.28-4.201,7.322l-2.48,2.451h4.668c1.518,0,2.422,1.079,2.422,2.538c0,1.518-1.109,2.567-2.422,2.567h-9.773
			C72.865,37.174,71.669,36.299,71.669,34.694z"/>
		<path fill="#06514D" d="M87.628,31.835c0-1.4,1.196-2.538,2.567-2.538c1.196,0,1.896,0.642,2.713,1.75
			c0.613,0.817,1.284,1.343,2.422,1.343c1.254,0,2.013-0.817,2.013-1.926c0-1.284-1.108-1.81-2.509-1.896
			c-1.517-0.088-2.451-0.846-2.451-2.305c0-1.605,1.254-2.101,2.947-2.509c0.612-0.146,1.546-0.496,1.546-1.4
			c0-0.846-0.729-1.254-1.517-1.254c-1.108,0-1.75,0.554-2.596,1.138c-0.671,0.467-1.167,0.875-2.188,0.875
			c-1.312,0-2.217-1.138-2.217-2.538c0-2.684,3.822-4.726,6.915-4.726c4.435,0,6.856,2.334,6.856,5.718
			c0,1.721-0.963,3.413-2.568,4.318c2.188,0.934,3.472,2.742,3.472,5.281c0,3.792-3.268,6.564-7.673,6.564
			C91.041,37.729,87.628,34.928,87.628,31.835z"/>
		<path fill="#06514D" d="M123.483,34.489v-1.312h-7.877c-1.604,0-2.48-0.992-2.48-2.188c0-0.672,0.233-1.4,0.934-2.48l6.564-9.978
			c1.021-1.517,2.13-2.305,4.26-2.305c2.509,0,3.909,1.75,3.909,3.997v8.023h0.963c1.692,0,2.742,0.7,2.742,2.48
			c0,1.779-1.108,2.45-2.742,2.45h-0.963v1.255c0,1.779-0.992,2.917-2.654,2.917C124.476,37.349,123.483,36.24,123.483,34.489z
			 M123.338,28.246l0.146-5.864l-0.029-0.263l-3.589,6.126H123.338z"/>
		<path fill="#06514D" d="M133.199,33.848c0-1.692,0.934-2.946,2.393-2.946c1.634,0,2.771,1.488,4.376,1.488
			c1.371,0,2.45-0.876,2.45-2.801c0-1.255-0.583-2.334-2.071-2.334c-1.487,0-1.954,1.08-3.617,1.08
			c-1.371,0-2.042-0.671-2.042-2.013c0-0.963,0.116-2.13,0.175-2.597l0.554-5.047c0.176-1.488,0.905-2.275,2.801-2.275h7.557
			c1.371,0,2.48,1.05,2.48,2.567c0,1.488-1.109,2.538-2.48,2.538h-5.718l-0.176,1.867c0.671-0.175,1.459-0.321,2.159-0.321
			c4.23,0,6.302,2.83,6.302,6.915c0,4.347-2.946,7.761-8.169,7.761C137.108,37.729,133.199,36.356,133.199,33.848z"/>
	</g>
</g>
</svg>
