<?xml version="1.0" encoding="utf-8"?>
<!-- Generator: Adobe Illustrator 16.0.0, SVG Export Plug-In . SVG Version: 6.00 Build 0)  -->
<!DOCTYPE svg PUBLIC "-//W3C//DTD SVG 1.1//EN" "http://www.w3.org/Graphics/SVG/1.1/DTD/svg11.dtd">
<svg version="1.1" id="Layer_1" xmlns="http://www.w3.org/2000/svg" xmlns:xlink="http://www.w3.org/1999/xlink" x="0px" y="0px"
	 width="50px" height="50px" viewBox="0 0 50 50" enable-background="new 0 0 50 50" xml:space="preserve">
<g>
	<path fill-rule="evenodd" clip-rule="evenodd" fill="#FFFFFF" d="M1.645,24.557c0.265-0.548,0.717-0.718,1.306-0.718
		c6.958,0.01,13.916,0.006,20.873,0.007c0.993,0,1.318,0.326,1.321,1.315c0.001,0.519,0,1.036,0,1.622
		c0.205,0,0.381,0.008,0.557-0.001c3.306-0.159,5.921,2.565,5.2,6.281c-0.659,3.412-3.3,5.933-6.749,6.379
		c-0.408,0.053-0.672,0.187-0.899,0.557c-0.768,1.251-1.779,2.287-2.967,3.151c-0.092,0.068-0.177,0.147-0.324,0.27
		c2.41,0,4.736,0,7.118,0c0-1.615,0-3.213,0-4.849c0.669,0,1.286,0,1.972,0c0,1.6,0,3.209,0,4.874c0.338,0,0.608-0.006,0.878,0
		c0.746,0.018,1.111,0.414,1.083,1.167c-0.062,1.701-1.292,3.179-3.008,3.616c-0.1,0.024-0.193,0.068-0.29,0.104
		c-7.587,0-15.177,0-22.766,0c-0.912-0.268-1.816-0.6-2.368-1.414c-0.391-0.576-0.629-1.257-0.936-1.892c0-0.307,0-0.611,0-0.918
		c0.293-0.521,0.737-0.717,1.33-0.671c0.487,0.034,0.976,0.007,1.466,0.007c0.769,0,1.541,0,2.423,0
		c-0.188-0.154-0.275-0.229-0.368-0.299c-2.213-1.639-3.709-3.778-4.436-6.435c-0.184-0.673-0.28-1.37-0.416-2.058
		C1.645,31.289,1.645,27.923,1.645,24.557z M3.649,31.726c-0.371,3.979,0.691,7.811,4.688,10.291
		c3.395,2.108,7.842,1.854,10.98-0.582c3.494-2.71,4.166-6.396,3.8-9.709C16.626,31.726,10.135,31.726,3.649,31.726z M23.164,25.854
		c-6.54,0-13.031,0-19.541,0c0,1.294,0,2.556,0,3.841c6.524,0,13.017,0,19.541,0C23.164,28.41,23.164,27.149,23.164,25.854z
		 M25.173,28.779c-0.169,2.89,0.333,5.772-0.643,8.612c0.194-0.046,0.309-0.067,0.421-0.101c2.183-0.669,3.817-2.684,4.07-4.959
		c0.146-1.297-0.207-2.358-1.31-3.112C26.944,28.692,26.073,28.725,25.173,28.779z M3.89,45.413
		c0.506,0.772,1.187,0.972,1.977,0.971c6.976-0.003,13.954-0.001,20.929-0.006c0.259,0,0.524-0.014,0.773-0.073
		c0.502-0.116,0.9-0.386,1.186-0.892C20.451,45.413,12.213,45.413,3.89,45.413z"/>
	<path fill-rule="evenodd" clip-rule="evenodd" fill="#FFFFFF" d="M35.886,48.333c0-0.625,0-1.25,0-1.926c3.611,0,7.167,0,10.764,0
		c0-14.388,0-28.722,0-43.09c-5.838,0-11.67,0-17.551,0c0,7.16,0,14.31,0,21.487c-0.683,0-1.318,0-2.001,0
		c0-7.147,0-14.298,0-21.484c-5.881,0-11.714,0-17.602,0c0,2.253,0,4.509,0,6.794c-0.671,0-1.292,0-1.955,0
		C7.533,9.976,7.52,9.83,7.52,9.684c0-2.371,0.011-4.742-0.008-7.114c-0.006-0.591,0.203-1,0.743-1.237c13.217,0,26.435,0,39.655,0
		c0.243,0.245,0.489,0.489,0.734,0.734c0,15.176,0,30.354,0,45.53c-0.245,0.245-0.491,0.49-0.734,0.735
		C43.9,48.333,39.893,48.333,35.886,48.333z"/>
	<path fill-rule="evenodd" clip-rule="evenodd" fill="#FFFFFF" d="M32.028,48.333c0-0.624,0-1.246,0-1.91c0.624,0,1.252,0,1.928,0
		c0,0.639,0,1.274,0,1.91C33.315,48.333,32.672,48.333,32.028,48.333z"/>
	<path fill-rule="evenodd" clip-rule="evenodd" fill="#FFFFFF" d="M42.772,12.161c-0.037,1.437-0.424,2.781-1.327,3.946
		c-1.894,2.442-5.073,2.496-7.05,0.124c-1.997-2.399-1.862-6.329,0.296-8.584c2.066-2.158,5.262-1.806,6.985,0.771
		C42.431,9.543,42.756,10.795,42.772,12.161z M38.155,8.237c-0.196,0.773-0.129,0.989,0.517,1.641
		c0.813,0.822,1.13,1.794,0.877,2.931c-0.146,0.663-0.529,1.186-1.009,1.656c-0.521,0.513-0.604,0.956-0.34,1.503
		c1.51-0.223,2.647-1.927,2.615-3.917C40.781,10.055,39.655,8.42,38.155,8.237z M36.119,15.136c0.085-0.93,0.56-1.625,1.197-2.25
		c0.498-0.488,0.505-1.045,0.022-1.535c-0.636-0.643-1.146-1.336-1.222-2.294C34.517,10.425,34.619,13.947,36.119,15.136z"/>
	<path fill-rule="evenodd" clip-rule="evenodd" fill="#FFFFFF" d="M6.558,22.879c0.012-1.007,0.375-1.803,1.042-2.462
		c1.231-1.216,1.237-1.727,0.009-2.904c-1.426-1.364-1.422-3.584,0.01-4.949c0.409-0.392,0.845-0.764,0.9-1.405
		c0.641,0,1.259,0,1.924,0c-0.02,0.942-0.365,1.721-1.004,2.381c-0.201,0.208-0.421,0.403-0.608,0.624
		c-0.451,0.535-0.45,1.228,0.004,1.758c0.166,0.197,0.358,0.375,0.546,0.555c1.428,1.365,1.43,3.584,0.01,4.954
		c-0.382,0.368-0.827,0.695-0.889,1.291c-0.008,0.059-0.12,0.149-0.185,0.151C7.742,22.884,7.166,22.879,6.558,22.879z"/>
	<path fill-rule="evenodd" clip-rule="evenodd" fill="#FFFFFF" d="M4.525,22.864c-0.604,0-1.209,0-1.875,0
		c-0.019-0.833,0.263-1.534,0.768-2.148c0.24-0.295,0.536-0.542,0.788-0.83c0.521-0.598,0.519-1.259-0.002-1.861
		c-0.159-0.185-0.34-0.351-0.517-0.519c-1.418-1.364-1.41-3.597,0.02-4.951c0.413-0.389,0.851-0.76,0.895-1.399
		c0.638,0,1.257,0,1.913,0c0.003,0.961-0.367,1.732-0.999,2.396c-0.202,0.209-0.42,0.401-0.609,0.623
		c-0.444,0.525-0.45,1.186-0.011,1.718c0.175,0.211,0.379,0.4,0.576,0.591c1.424,1.382,1.423,3.568-0.007,4.951
		C4.732,22.145,4.732,22.145,4.525,22.864z"/>
	<path fill-rule="evenodd" clip-rule="evenodd" fill="#FFFFFF" d="M40.791,32.69c0,0.649,0,1.265,0,1.913c-3.259,0-6.487,0-9.745,0
		c0-0.638,0-1.258,0-1.913C34.271,32.69,37.503,32.69,40.791,32.69z"/>
	<path fill-rule="evenodd" clip-rule="evenodd" fill="#FFFFFF" d="M40.792,20.944c0,0.643,0,1.26,0,1.908c-3.257,0-6.485,0-9.744,0
		c0-0.632,0-1.253,0-1.908C34.274,20.944,37.504,20.944,40.792,20.944z"/>
	<path fill-rule="evenodd" clip-rule="evenodd" fill="#FFFFFF" d="M40.796,28.793c0,0.636,0,1.243,0,1.881c-3.247,0-6.479,0-9.746,0
		c0-0.608,0-1.228,0-1.881C34.278,28.793,37.512,28.793,40.796,28.793z"/>
	<path fill-rule="evenodd" clip-rule="evenodd" fill="#FFFFFF" d="M40.791,26.759c-3.253,0-6.477,0-9.734,0c0-0.613,0-1.232,0-1.89
		c3.222,0,6.467,0,9.734,0C40.791,25.498,40.791,26.117,40.791,26.759z"/>
	<path fill-rule="evenodd" clip-rule="evenodd" fill="#FFFFFF" d="M21.196,8.228c0,0.637,0,1.255,0,1.896c-3.247,0-6.466,0-9.751,0
		c0-0.323,0-0.637,0-0.952c0-0.304,0-0.607,0-0.943C14.71,8.228,17.941,8.228,21.196,8.228z"/>
	<path fill-rule="evenodd" clip-rule="evenodd" fill="#FFFFFF" d="M19.28,16.971c0-0.646,0-1.256,0-1.902c1.944,0,3.875,0,5.835,0
		c0,0.626,0,1.246,0,1.902C23.19,16.971,21.258,16.971,19.28,16.971z"/>
	<path fill-rule="evenodd" clip-rule="evenodd" fill="#FFFFFF" d="M25.132,12.132c0,0.646,0,1.256,0,1.902c-1.942,0-3.874,0-5.833,0
		c0-0.625,0-1.246,0-1.902C21.224,12.132,23.155,12.132,25.132,12.132z"/>
	<path fill-rule="evenodd" clip-rule="evenodd" fill="#FFFFFF" d="M42.794,22.851c0-0.656,0-1.274,0-1.915c0.642,0,1.259,0,1.901,0
		c0,0.645,0,1.264,0,1.915C44.064,22.851,43.447,22.851,42.794,22.851z"/>
	<path fill-rule="evenodd" clip-rule="evenodd" fill="#FFFFFF" d="M42.79,34.576c0-0.627,0-1.246,0-1.892c0.64,0,1.255,0,1.901,0
		c0,0.628,0,1.232,0,1.892C44.081,34.576,43.459,34.576,42.79,34.576z"/>
	<path fill-rule="evenodd" clip-rule="evenodd" fill="#FFFFFF" d="M44.685,26.76c-0.637,0-1.253,0-1.892,0c0-0.639,0-1.256,0-1.899
		c0.625,0,1.239,0,1.892,0C44.685,25.475,44.685,26.088,44.685,26.76z"/>
	<path fill-rule="evenodd" clip-rule="evenodd" fill="#FFFFFF" d="M44.692,30.695c-0.65,0-1.255,0-1.891,0c0-0.639,0-1.268,0-1.914
		c0.634,0,1.248,0,1.891,0C44.692,29.421,44.692,30.036,44.692,30.695z"/>
	<path fill-rule="evenodd" clip-rule="evenodd" fill="#FFFFFF" d="M23.23,8.195c0.457,0,0.895,0,1.331,0c0.18,0,0.358,0,0.56,0
		c0,0.662,0,1.277,0,1.923c-0.624,0-1.239,0-1.89,0C23.23,9.502,23.23,8.889,23.23,8.195z"/>
	<path fill-rule="evenodd" clip-rule="evenodd" fill="#FFFFFF" d="M16.709,41.827c-0.255-0.628-0.492-1.204-0.74-1.813
		c2.066-0.916,3.427-2.454,4.072-4.651c0.63,0.161,1.229,0.316,1.894,0.486C21.119,38.657,19.402,40.614,16.709,41.827z"/>
</g>
</svg>
