<?xml version="1.0" encoding="utf-8"?>
<!-- Generator: Adobe Illustrator 16.0.0, SVG Export Plug-In . SVG Version: 6.00 Build 0)  -->
<!DOCTYPE svg PUBLIC "-//W3C//DTD SVG 1.1//EN" "http://www.w3.org/Graphics/SVG/1.1/DTD/svg11.dtd">
<svg version="1.1" id="Layer_1" xmlns="http://www.w3.org/2000/svg" xmlns:xlink="http://www.w3.org/1999/xlink" x="0px" y="0px"
	 width="50px" height="50px" viewBox="0 0 50 50" enable-background="new 0 0 50 50" xml:space="preserve">
<g>
	<g>
		<path fill-rule="evenodd" clip-rule="evenodd" fill="#FFFFFF" d="M0.705,24.087c1.064-2.611,2.129-5.224,3.198-7.834
			c0.803-1.958,2.081-2.821,4.187-2.821c4.311-0.003,8.624-0.002,12.937,0c0.171,0,0.346-0.003,0.513,0.027
			c0.421,0.073,0.679,0.389,0.638,0.787c-0.04,0.417-0.291,0.656-0.704,0.673c-0.546,0.022-1.094,0.024-1.64,0.006
			c-0.312-0.011-0.443,0.073-0.459,0.409c-0.141,2.948-0.308,5.895-0.449,8.844c-0.057,1.155,0.77,2.146,1.823,2.248
			c1.104,0.106,2.077-0.644,2.195-1.834c0.08-0.833-0.021-1.682-0.059-2.523c-0.034-0.764-0.093-1.527-0.133-2.292
			c-0.03-0.594,0.232-0.943,0.704-0.967c0.48-0.025,0.759,0.289,0.795,0.884c0.084,1.544,0.168,3.088,0.261,4.632
			c0.074,1.248,0.776,1.975,2.013,2.109c0.477,0.052,0.767,0.357,0.748,0.79c-0.017,0.432-0.333,0.717-0.816,0.71
			c-0.918-0.014-1.698-0.369-2.35-1.007c-0.118-0.119-0.21-0.267-0.32-0.405c-1.708,1.969-4.162,1.779-5.62,0.035
			c-0.735,0.847-1.634,1.385-2.791,1.381c-1.137-0.004-2.037-0.505-2.783-1.391c-0.749,0.864-1.646,1.394-2.799,1.391
			c-1.141-0.004-2.034-0.512-2.688-1.271c-0.645,0.385-1.227,0.867-1.893,1.103c-1.75,0.615-3.683-0.429-4.313-2.233
			c-0.061-0.172-0.13-0.343-0.194-0.513C0.705,24.712,0.705,24.4,0.705,24.087z M13.526,14.931c-0.913,0-1.767,0.019-2.623-0.008
			c-0.335-0.01-0.451,0.12-0.54,0.419c-0.829,2.89-1.674,5.776-2.504,8.666c-0.057,0.202-0.086,0.432-0.055,0.638
			c0.17,1.072,0.999,1.795,2.015,1.789c0.989-0.01,1.783-0.735,1.973-1.79c0.388-2.195,0.78-4.388,1.172-6.582
			C13.149,17.039,13.333,16.016,13.526,14.931z M15.073,14.951c-0.035,0.123-0.082,0.239-0.103,0.359
			c-0.531,2.916-1.065,5.831-1.585,8.749c-0.042,0.238-0.029,0.503,0.025,0.74c0.238,1.051,1.124,1.711,2.148,1.63
			c0.959-0.075,1.771-0.905,1.832-1.94c0.186-3.117,0.35-6.235,0.517-9.353c0.004-0.055-0.025-0.114-0.042-0.185
			C16.928,14.951,16.009,14.951,15.073,14.951z M8.935,14.943c-0.485,0-0.887-0.014-1.29,0.003c-1.083,0.044-1.823,0.62-2.23,1.588
			c-1.052,2.501-2.075,5.012-3.088,7.529c-0.099,0.24-0.114,0.558-0.053,0.812c0.242,1.006,1.111,1.625,2.106,1.555
			c0.944-0.066,1.729-0.869,1.857-1.875c0.044-0.354,0.108-0.71,0.205-1.053c0.411-1.438,0.841-2.873,1.258-4.309
			C8.106,17.803,8.509,16.413,8.935,14.943z"/>
		<path fill-rule="evenodd" clip-rule="evenodd" fill="#FFFFFF" d="M48.705,13.775c-0.158,0.777-0.244,1.578-0.496,2.324
			c-0.312,0.926-0.67,1.857-1.16,2.697c-3.083,5.282-6.207,10.539-9.326,15.802c-0.123,0.208-0.278,0.427-0.475,0.558
			c-0.38,0.25-0.778,0.078-1.073-0.42c-1.479-2.497-2.953-4.995-4.431-7.496c-1.643-2.78-3.287-5.561-4.929-8.341
			c-4.17-7.058-0.257-15.947,7.766-17.641c0.424-0.09,0.854-0.156,1.279-0.233c0.69,0,1.375,0,2.064,0
			c0.103,0.027,0.206,0.067,0.313,0.08c4.84,0.576,8.745,3.909,10.042,8.599c0.189,0.688,0.286,1.402,0.426,2.103
			C48.705,12.462,48.705,13.118,48.705,13.775z M36.922,33.021c0.125-0.209,0.216-0.354,0.305-0.502
			c2.824-4.782,5.648-9.564,8.473-14.346c1.208-2.042,1.69-4.232,1.429-6.6c-0.63-5.696-6.146-9.878-11.813-8.929
			c-7.257,1.214-10.951,9.174-7.2,15.512c2.835,4.792,5.671,9.589,8.505,14.381C36.706,32.682,36.799,32.824,36.922,33.021z"/>
		<path fill-rule="evenodd" clip-rule="evenodd" fill="#FFFFFF" d="M4.736,49.025c-0.388-0.235-0.494-0.58-0.494-1.026
			c0.011-6.141,0.006-12.28,0.006-18.422c0-0.108-0.002-0.219,0.011-0.326c0.044-0.396,0.274-0.628,0.666-0.661
			s0.67,0.155,0.774,0.537c0.05,0.191,0.048,0.4,0.048,0.603c0.002,5.734,0,11.467,0,17.2c0,0.184,0,0.366,0,0.573
			c10.152,0,20.252,0,30.417,0c0-0.195,0-0.373,0-0.555c0-3.093,0-6.188,0.003-9.28c0-0.173-0.009-0.348,0.019-0.514
			c0.069-0.413,0.396-0.678,0.795-0.636c0.413,0.043,0.647,0.281,0.678,0.7c0.007,0.095,0.005,0.188,0.005,0.282
			c0,3.5-0.005,6.999,0.009,10.499c0.002,0.448-0.112,0.79-0.498,1.025C26.361,49.025,15.55,49.025,4.736,49.025z"/>
		<path fill-rule="evenodd" clip-rule="evenodd" fill="#FFFFFF" d="M10.143,41.246c0-1.608-0.072-3.22,0.014-4.823
			c0.152-2.789,2.439-4.87,5.209-4.841c2.719,0.026,5.019,2.182,5.084,4.93c0.079,3.247,0.028,6.497,0.023,9.745
			c-0.002,0.508-0.326,0.821-0.776,0.811c-0.445-0.011-0.716-0.324-0.716-0.859c-0.004-3.124,0.004-6.248-0.006-9.371
			c-0.007-1.867-1.227-3.342-3.025-3.703c-1.994-0.4-4.035,1.07-4.281,3.09c-0.038,0.308-0.052,0.622-0.052,0.935
			c-0.007,2.92-0.005,5.839-0.005,8.762c0,0.17,0.007,0.345-0.019,0.514c-0.062,0.39-0.301,0.612-0.696,0.63
			c-0.398,0.018-0.653-0.188-0.742-0.573c-0.038-0.165-0.038-0.34-0.038-0.512c-0.002-1.577-0.002-3.153-0.002-4.732
			C10.124,41.246,10.134,41.246,10.143,41.246z"/>
		<path fill-rule="evenodd" clip-rule="evenodd" fill="#FFFFFF" d="M28.733,41.83c-1.325,0-2.654,0.002-3.982,0
			c-0.706-0.004-0.955-0.25-0.957-0.962c-0.004-2.092-0.004-4.184,0-6.277c0.002-0.734,0.251-0.989,0.986-0.991
			c2.639-0.005,5.277-0.004,7.916,0c0.766,0.001,1.002,0.251,1.004,1.02c0.002,2.077,0.002,4.153-0.002,6.23
			c0,0.737-0.24,0.978-0.982,0.98C31.388,41.832,30.062,41.83,28.733,41.83z M32.165,35.134c-2.291,0-4.562,0-6.838,0
			c0,1.745,0,3.453,0,5.176c2.293,0,4.553,0,6.838,0C32.165,38.575,32.165,36.865,32.165,35.134z"/>
		<path fill-rule="evenodd" clip-rule="evenodd" fill="#FFFFFF" d="M28.722,44.362c-1.641,0-3.281,0-4.918,0
			c-0.158-0.001-0.314,0.006-0.468-0.016c-0.371-0.053-0.597-0.276-0.632-0.646c-0.036-0.388,0.139-0.674,0.522-0.781
			c0.192-0.053,0.401-0.056,0.601-0.056c3.28-0.003,6.56-0.003,9.838-0.003c0.759,0,1.126,0.244,1.136,0.75
			c0.012,0.512-0.341,0.751-1.112,0.751C32.032,44.362,30.378,44.362,28.722,44.362z"/>
		<path fill-rule="evenodd" clip-rule="evenodd" fill="#FFFFFF" d="M16.564,40.797c0.394,0.012,0.74,0.378,0.729,0.771
			c-0.011,0.406-0.354,0.727-0.768,0.717c-0.414-0.011-0.735-0.349-0.725-0.756C15.812,41.13,16.172,40.788,16.564,40.797z"/>
		<path fill-rule="evenodd" clip-rule="evenodd" fill="#FFFFFF" d="M36.926,5.659c3.952,0.007,7.147,3.209,7.146,7.155
			c-0.002,3.965-3.229,7.172-7.196,7.155c-3.947-0.016-7.123-3.222-7.112-7.18C29.769,8.841,32.973,5.651,36.926,5.659z
			 M31.259,12.794c-0.006,3.134,2.518,5.666,5.646,5.67c3.128,0.003,5.675-2.536,5.67-5.656c-0.002-3.094-2.525-5.627-5.632-5.656
			C33.837,7.124,31.266,9.676,31.259,12.794z"/>
		<path fill-rule="evenodd" clip-rule="evenodd" fill="#FFFFFF" d="M36.928,16.234c-1.908,0.006-3.426-1.499-3.432-3.404
			c-0.009-1.897,1.516-3.443,3.401-3.453c1.872-0.008,3.437,1.542,3.447,3.42C40.355,14.683,38.82,16.228,36.928,16.234z
			 M36.896,14.735c1.077,0.007,1.946-0.843,1.95-1.914c0.003-1.058-0.881-1.944-1.938-1.937c-1.054,0.006-1.903,0.847-1.916,1.901
			C34.979,13.874,35.811,14.726,36.896,14.735z"/>
	</g>
</g>
</svg>
