<?xml version="1.0" encoding="utf-8"?>
<!-- Generator: Adobe Illustrator 16.0.0, SVG Export Plug-In . SVG Version: 6.00 Build 0)  -->
<!DOCTYPE svg PUBLIC "-//W3C//DTD SVG 1.1//EN" "http://www.w3.org/Graphics/SVG/1.1/DTD/svg11.dtd">
<svg version="1.1" id="Layer_1" xmlns="http://www.w3.org/2000/svg" xmlns:xlink="http://www.w3.org/1999/xlink" x="0px" y="0px"
	 width="200px" height="200px" viewBox="0 0 200 200" enable-background="new 0 0 200 200" xml:space="preserve">
<g>
	<path fill="#FFFFFF" d="M187.141,104.634c0-10.555-2.065-20.792-6.145-30.433c-3.938-9.309-9.574-17.669-16.753-24.849
		s-15.54-12.815-24.85-16.754c-9.64-4.077-19.878-6.144-30.431-6.144c-0.652,0-1.303,0.007-1.953,0.021
		c0.052,1.223,0.104,2.441,0.072,3.661c0.626-0.015,1.251-0.021,1.881-0.021c10.059,0,19.819,1.969,29.003,5.854
		c8.874,3.753,16.845,9.128,23.688,15.971c6.844,6.843,12.219,14.814,15.973,23.687c3.884,9.187,5.854,18.945,5.854,29.007
		c0,3.888-0.299,7.73-0.884,11.515l3.561,0.943C186.813,113.002,187.141,108.841,187.141,104.634z"/>
	<path fill="#FFFFFF" d="M189.705,70.522c-4.412-10.436-10.731-19.807-18.778-27.854c-8.047-8.047-17.421-14.367-27.856-18.779
		c-10.801-4.571-22.279-6.888-34.107-6.888c-0.661,0-1.32,0.01-1.979,0.024c0.032,1.22,0.075,2.441,0.111,3.66
		c0.621-0.013,1.242-0.023,1.867-0.023c11.337,0,22.332,2.22,32.684,6.598c9.999,4.229,18.979,10.284,26.69,17.997
		c7.712,7.714,13.766,16.693,17.996,26.692c4.379,10.351,6.598,21.348,6.598,32.685c0,11.335-2.219,22.334-6.598,32.682
		c-4.23,10.001-10.284,18.981-17.996,26.694c-7.712,7.71-16.691,13.768-26.69,17.995c-10.352,4.376-21.347,6.597-32.684,6.597
		c-11.338,0-22.335-2.221-32.686-6.597c-6.543-2.768-12.645-6.319-18.244-10.604l34.623-11.392
		c5.228,1.533,10.706,2.328,16.307,2.328c15.412,0,29.903-6.004,40.801-16.902c10.899-10.899,16.902-25.39,16.902-40.802
		c0-15.415-6.003-29.906-16.902-40.803c-5.607-5.608-12.169-9.915-19.316-12.78c0.141-0.701,0.282-1.403,0.449-2.089
		c0.07-0.289,0.101-0.585,0.152-0.881c0-0.83,0-1.661,0-2.492c-0.038-0.104-0.096-0.201-0.111-0.308
		c-0.111-0.624-0.268-1.207-0.47-1.749c9.174,3.171,17.582,8.401,24.646,15.464c12.262,12.263,19.015,28.566,19.015,45.907
		c0,2.804-0.179,5.582-0.526,8.314l3.54,1.152c0.426-3.11,0.647-6.271,0.647-9.467c0-18.316-7.133-35.542-20.088-48.496
		c-7.446-7.447-16.307-12.967-25.976-16.315c-0.018,0.032-0.027,0.051-0.027,0.051c-2.837-1.264-7.491-1.653-10.754-1.763h-3.887
		c-0.001-0.406-0.001-0.786,0.003-1.164c0.021-2.4-0.771-3.265-3.001-3.265c-19.805,0-39.609,0.009-59.414-0.023
		c-1.441-0.003-2.512,0.409-3.132,1.852c0,0.894,0,1.786,0,2.68c-1.548,1.345-3.056,2.747-4.519,4.209
		c-8.047,8.048-14.365,17.419-18.778,27.854c-0.501,1.184-0.973,2.375-1.418,3.576H13.579c0,0.001,0,0.004,0,0.006
		c-0.557,0-1.073,0.003-1.587,0c-0.566,0-1.132-0.003-1.698-0.006H7.161c-0.727,0-1.458-0.003-2.187,0.013
		c-1.495,0.028-2.417,0.968-2.38,2.273c0.035,1.254,0.95,2.088,2.373,2.142c0.573,0.022,1.153,0.054,1.721-0.004
		c0.814-0.085,1.141,0.247,1.548,0.988c1.1,1.994,2.313,3.947,3.686,5.761c1.198,1.579,2.897,2.229,4.99,2.197
		c1.483-0.021,3.616-0.038,6.107-0.043c-1.122,5.625-1.689,11.374-1.689,17.209c0,11.828,2.318,23.307,6.888,34.111
		c4.414,10.435,10.731,19.806,18.778,27.854c8.048,8.047,17.418,14.365,27.854,18.778c10.805,4.571,22.282,6.887,34.112,6.887
		c11.828,0,23.307-2.315,34.107-6.887c10.436-4.413,19.81-10.731,27.856-18.778c8.047-8.048,14.366-17.419,18.778-27.854
		c4.57-10.805,6.889-22.283,6.889-34.111C196.594,92.804,194.275,81.327,189.705,70.522z M54.638,168.665
		c-1.673-1.425-3.298-2.914-4.87-4.479l30.087-9.705c2.297,1.347,4.677,2.531,7.13,3.541L54.638,168.665z M24.992,104.634
		c0-1.481,0.038-2.958,0.114-4.423l21.397-7.029c0.26,1.75,1.412,2.979,2.98,3.964c0.423,0.267,0.845,0.535,1.264,0.804
		l-25.737,8.452C24.999,105.813,24.992,105.225,24.992,104.634z M67.447,99.151c3.671,2.423,7.023,5.327,10.558,7.965
		c2.117,1.58,4.285,3.101,6.493,4.554c0.909,0.596,1.955,1.024,2.988,1.388c4.098,1.438,7.252,0.235,9.124-3.669
		c1.021-2.135,1.685-4.442,2.499-6.677c0.559-1.531,1.069-3.08,1.647-4.604c1.326-3.494,4.073-5.302,7.519-6.252
		c0.254-0.07,0.556-0.182,0.777-0.104c0.748,0.256,1.469,0.589,2.199,0.891c-0.345,0.613-0.627,1.277-1.057,1.826
		c-0.315,0.4-0.812,0.672-1.254,0.963c-3.803,2.481-5.185,6.106-4.049,10.32c1.012,3.754,2.578,7.386,4.166,10.954
		c0.946,2.122,2.713,3.664,4.922,4.612c0.334,0.146,0.71,0.676,0.712,1.03c0.049,4.498,0.033,8.993,0.033,13.904
		c-3.067-0.863-5.933-1.551-8.718-2.47c-11.928-3.941-22.295-10.298-30.521-19.923c-6.868-8.039-14.605-15.073-23.719-20.521
		c-0.361-0.214-0.559-0.699-0.833-1.059c0.438-0.247,0.895-0.729,1.31-0.697c1.079,0.087,2.266,0.164,3.184,0.662
		C59.49,94.448,63.596,96.611,67.447,99.151z M55.841,87.497h51.188c-1.244,0.514-2.254,0.894-3.23,1.344
		c-3.793,1.741-6.179,4.733-7.537,8.604c-0.989,2.828-1.876,5.693-2.924,8.498c-1.375,3.682-2.663,4.23-6.054,2.217
		c-2.679-1.591-5.213-3.463-7.644-5.415c-5.855-4.707-11.868-9.166-18.511-12.707C59.471,89.154,57.745,88.406,55.841,87.497z
		 M51.337,101.612c-0.053,1-0.079,2.008-0.079,3.021c0,1.183,0.04,2.358,0.109,3.528l-25.54,8.388
		c-0.298-2.099-0.517-4.218-0.655-6.345L51.337,101.612z M51.71,111.902c0.28,2.246,0.691,4.464,1.228,6.641l-25.006,8.213
		c-0.589-2.163-1.092-4.345-1.505-6.551L51.71,111.902z M53.929,122.069c0.589,1.866,1.273,3.699,2.049,5.49l-25.02,8.219
		c-0.729-1.819-1.391-3.657-1.985-5.512L53.929,122.069z M57.553,130.897c0.967,1.889,2.04,3.726,3.218,5.505L35.2,144.801
		c-1.003-1.843-1.939-3.721-2.806-5.642L57.553,130.897z M62.994,139.524c1.271,1.666,2.637,3.277,4.1,4.817l-26.711,8.771
		c-1.169-1.649-2.276-3.341-3.323-5.071L62.994,139.524z M70.036,147.23c1.854,1.697,3.802,3.264,5.832,4.692l-28.919,9.327
		c-1.49-1.632-2.911-3.312-4.26-5.041L70.036,147.23z M70.748,142.848c-10.208-10.209-15.828-23.78-15.828-38.214
		c0-1.281,0.048-2.552,0.136-3.816c3.385,2.361,6.62,4.922,9.525,7.893c3.887,3.977,7.57,8.149,11.463,12.117
		c9.617,9.803,21.517,15.476,34.632,18.892c1.311,0.344,2.643,0.595,3.936,0.88c0.417,3.454,0.581,3.599,4.04,3.599h4.928
		c0,1.727-0.032,3.268,0.011,4.806c0.042,1.518,0.835,2.383,2.25,2.389c2.392,0.015,6.206,0.026,10.212,0.026
		c-8.143,4.732-17.421,7.258-27.089,7.258C94.526,158.676,80.956,153.055,70.748,142.848z M119.093,119.538
		c-0.005-0.851,0.23-1.199,1.114-1.149c1.051,0.058,2.105,0.012,3.266,0.012v21.301h-4.213c-0.049-0.307-0.132-0.594-0.132-0.882
		C119.115,132.391,119.128,125.963,119.093,119.538z M147.175,142.848c-1.494,1.494-3.063,2.888-4.693,4.182
		c-4.796,0-10.258,0.01-12.84,0.006h-1.515v-32.917h1.813c3.356,0,22.963,0.01,32.239,0
		C160.273,124.944,155.111,134.911,147.175,142.848z M162.764,109.75c-9.795-0.013-32.176-0.009-36.817,0.003
		c-1.45,0.006-2.267,0.823-2.358,2.294c-0.039,0.606-0.009,1.214-0.009,1.954c-1.892,0-3.646-0.038-5.4,0.014
		c-0.817,0.024-1.762,0.003-2.408,0.401c-0.611,0.371-0.909,1.26-1.392,1.987c-0.252-0.264-0.603-0.539-0.833-0.894
		c-2.345-3.593-3.904-7.508-4.519-11.751c-0.258-1.778,0.475-3.255,1.957-4.366c1.161-0.869,2.377-1.726,3.329-2.8
		c2.455-2.767,1.702-6.638-1.53-8.432c-0.326-0.182-0.666-0.334-1-0.5c0.013-0.077,0.023-0.154,0.033-0.229h1.384
		c7.371,0,21.871-0.196,29.231,0.082c3.607,0.136,5.872-1.271,7.561-4.17c0.465-0.8,1.134-1.556,1.333-2.42
		c0.498-2.16,1.791-2.64,3.806-2.433c0.401,0.041,0.764-0.012,1.083-0.132c4.432,7.945,6.79,16.926,6.79,26.274
		C163.004,106.352,162.924,108.059,162.764,109.75z M147.175,66.419c2.387,2.386,4.519,4.957,6.391,7.679H115.12
		c-0.224-0.047-0.461-0.076-0.712-0.077c-3.003-0.01-6.005-0.001-9.004-0.001c-0.251,0-0.502,0-0.874,0
		c0.935-1.23,1.901-2.282,2.61-3.504c0.755-1.296,1.661-1.649,3.075-1.705c8.922-0.326,15.341-4.896,19.075-13.558
		c0.089-0.203,0.168-0.409,0.244-0.619C136.054,57.315,142.042,61.285,147.175,66.419z M63.304,74.017
		c-2.952,0.003-5.903,0.041-8.853-0.014c-0.363-0.009-0.696,0.023-1.001,0.096h-1.807c1.733-3.245,3.744-6.35,6.031-9.287
		c-0.047-0.282-0.093-0.563-0.14-0.843c1.007,2.059,2.156,4.061,3.46,6c0.469,0.697,0.965,1.37,1.473,2.035
		c0.487,0.637,1.008,1.248,1.595,1.968C63.739,73.992,63.521,74.017,63.304,74.017z M116.655,43.945
		c2.612,0,5.145-0.054,7.674,0.025c1.218,0.036,2.082,1.201,2.05,2.572c-0.151,5.926-2.464,10.663-6.945,14.139
		c-2.325,1.805-4.955,2.828-7.829,3.091c-0.121,0.01-0.241,0.001-0.453,0.001C114.123,57.51,115.871,50.926,116.655,43.945z
		 M56.295,38.977c18.704,0,37.356,0,56.046,0c-0.191,4.897-0.948,9.629-2.274,14.251c-1.83,6.374-4.557,12.235-8.844,17.151
		c-1.054,1.21-2.26,2.274-3.423,3.372c-0.186,0.176-0.511,0.256-0.771,0.257c-8.491,0.013-16.983,0.016-25.475-0.006
		c-0.321-0.001-0.695-0.188-0.953-0.409c-4.526-3.843-7.666-8.808-10.002-14.387c-2.661-6.363-4.037-13.063-4.347-20.017
		C56.25,39.137,56.271,39.083,56.295,38.977z M56.144,60.88c-3.404,4.095-6.29,8.527-8.626,13.218h-6.551
		c3.242-7.211,7.571-13.803,12.91-19.65c-0.016-0.15-0.037-0.302-0.054-0.453C54.455,56.348,55.222,58.645,56.144,60.88z
		 M31.589,71.949c4.228-9.999,10.284-18.978,17.996-26.692c0.743-0.741,1.498-1.465,2.263-2.173c0.04,0.377,0.08,0.753,0.124,1.128
		c0.234,2.007,0.548,3.985,0.941,5.928c-6.786,6.975-12.15,15.025-15.942,23.958h-6.256C30.997,73.378,31.288,72.662,31.589,71.949z
		 M14.311,81.33c-0.561-0.834-1.107-1.677-1.843-2.794c0.757,0,1.187,0,1.618,0c21.688,0,86.518-0.001,111.302-0.004v0.004h14.604
		v-0.012c2.048,0.006,4.098,0.009,6.145,0.011h1.693c-1.091,1.574-1.918,2.912-2.908,4.112c-0.275,0.333-1.034,0.364-1.572,0.364
		c-22.237,0.018-51.599,0.014-73.837,0.014c-12.972,0-38.823-0.033-51.795,0.045C16.133,83.079,15.12,82.541,14.311,81.33z
		 M49.634,87.43c-0.653,0.45-1.248,0.917-1.746,1.442l-22.485,7.386c0.295-2.981,0.746-5.931,1.354-8.843
		C35.002,87.404,45.206,87.43,49.634,87.43z"/>
	<path fill="#FFFFFF" d="M79.284,70.44c0.297,0.013,0.684-0.377,0.306-0.882c-0.377-0.504-1.373-2.257-2.234-4.299
		c0,0-2.005-4.682-2.005-10.222c0-5.544,1.898-8.326,2.173-8.802c0.275-0.473,0.695-1.074,0.695-1.074s0.239-0.351,0.309-0.522
		c0.07-0.167,0.042-0.407-0.153-0.505c-0.199-0.099-0.437-0.198-0.943,0.45c0,0-3.465,3.636-3.465,10.489s2.508,12.021,3.594,13.557
		C78.647,70.165,78.992,70.427,79.284,70.44z"/>
	<path fill="#FFFFFF" d="M76.394,53.827c0,1.32,0.492,3.537,1.39,4.769c0.9,1.232,1.267,1.409,1.496,1.621
		c0.231,0.212,0.619-0.386,0.159-0.986c-0.457-0.598-1.724-1.849-1.724-6.603c0-4.753,3.423-9.8,7.28-9.8
		c3.859,0,8.158,5.055,8.158,12.545c0,7.487-2.921,11.858-2.921,11.858s-1.024-1.485-1.485-2.147
		c-0.464-0.662-0.723-1.074-0.723-1.074s1.108-1.471,1.583-2.682c0.476-1.211,0.801-2.472,0.801-4.034s-0.974-2.11-1.56-2.11
		c-0.587,0-1.574,0.601-2.283,1.724c-0.713,1.123-0.9,1.449-0.9,1.449s-0.437-2.511-0.548-4.144
		c-0.113-1.637-0.375-4.734-0.227-6.405c0.151-1.673,0.375-2.272,0.437-2.671c0.064-0.399,0.127-0.843-0.322-0.916
		c-0.448-0.068-0.646,0.281-0.803,0.975c-0.16,0.694-0.622,2.461-0.622,4.136c0,1.671,0,3.833,0.063,5.317
		c0.064,1.485,0.35,3.107,0.45,4.631c0.101,1.524,0.173,5.18,0.173,6.167c0,0.986-0.096,2.234-0.235,3.218
		c-0.135,0.987-0.349,1.437-0.388,1.648c-0.038,0.213,0.113,0.464,0.425,0.298c0.312-0.16,0.562-0.547,0.875-1.558
		c0.31-1.011,0.635-2.896,0.709-3.547c0.074-0.649,0.087-0.947,0.087-0.947s1.148,0.562,1.848,1.961
		c0.697,1.397,1.149,2.145,1.037,2.433c-0.113,0.286-0.599,1.05-1.485,1.486c-0.886,0.437-2.261,0.773-3.27,0.773
		c-1.013,0-1.955-0.132-1.955-0.132s-0.56-0.125-0.762-0.054c-0.205,0.07-0.295,0.521,0.109,0.792
		c0.404,0.273,1.446,0.458,2.513,0.458c1.067,0,3.926-0.377,6.109-2.576c2.185-2.195,4.868-6.279,4.868-14.105
		s-4.156-14.792-8.876-14.792c-4.716,0-7.9,5.505-8.688,8.052C76.399,51.404,76.394,52.507,76.394,53.827z M87.343,63.411
		c-1.151,0.8-1.487,0.874-1.487,0.874l-0.035-4.291c0,0,0.649-1.465,1.411-2.081c0.761-0.612,1.747-0.648,1.747,1.394
		C88.978,61.351,88.494,62.614,87.343,63.411z"/>
	<path fill="#FFFFFF" d="M101.534,166.596c-1.266-0.053-2.193,0.731-2.251,2.094l-0.566,13.596
		c-0.055,1.362,0.803,2.219,2.068,2.271c1.264,0.052,2.192-0.729,2.249-2.092l0.238-5.707l4.982,6.272
		c1.365,1.77,1.957,1.918,2.603,1.947c1.265,0.052,2.218-0.756,2.271-2.018c0.019-0.495-0.182-1.026-0.608-1.518l-5.16-6.204
		l4.683-4.427c0.469-0.479,0.84-1.059,0.866-1.703c0.044-1.067-1.008-2.081-1.999-2.122c-0.819-0.034-1.251,0.197-2.056,1.034
		l-5.453,5.635l0.2-4.785C103.657,167.504,102.799,166.65,101.534,166.596z"/>
	<path fill="#FFFFFF" d="M141.328,175.757c0.858,1.074,1.661,1.608,2.882,1.117c1.152-0.46,1.655-1.409,1.249-2.423
		c-0.323-0.807-0.955-1.518-1.579-2.205l-8.024-8.82c-1.195-1.312-2.441-1.883-3.846-1.32c-1.498,0.598-1.981,1.863-1.939,3.637
		l0.272,12.035c0.024,0.792,0.074,1.787,0.39,2.571c0.403,1.016,1.425,1.355,2.576,0.894c1.061-0.428,1.453-1.117,1.332-2.889
		l-0.134-1.337l5.899-2.362L141.328,175.757z M134.208,172.807l-0.412-6.308l0.045-0.02l3.894,4.913L134.208,172.807z"/>
	<path fill="#FFFFFF" d="M157.793,147.013c-0.844-0.879-2.002-0.869-2.881-0.027l-4.537,4.346c-0.808,0.769-0.871,2.104-0.064,2.945
		l9.376,9.791c0.942,0.987,2.155,0.961,3.07,0.087c0.914-0.876,0.993-2.087,0.049-3.072l-3.4-3.553l2.565-2.455
		c0.879-0.839,0.974-1.961,0.096-2.875c-0.856-0.898-1.981-0.852-2.859-0.013l-2.565,2.458l-1.888-1.974l2.922-2.797
		C158.555,149.031,158.667,147.926,157.793,147.013z"/>
	<path fill="#FFFFFF" d="M169.572,127.531c-1.092-0.534-2.187-0.104-2.71,0.969l-2.777,5.688c-0.491,1.003-0.091,2.275,0.979,2.8
		l12.093,5.903c1.07,0.522,2.319,0.058,2.813-0.949l2.83-5.799c0.534-1.094,0.19-2.2-0.903-2.732c-1.137-0.559-2.145-0.138-2.699,1
		l-1.841,3.771l-2.61-1.275l1.634-3.345c0.557-1.138,0.234-2.181-0.881-2.724c-1.136-0.557-2.178-0.123-2.71,0.971l-1.645,3.365
		l-2.5-1.218l1.81-3.704C170.977,129.182,170.711,128.085,169.572,127.531z"/>
	<path fill="#FFFFFF" d="M68.658,27.847c-0.936,1.164-0.885,2.507,0.13,3.387c1.038,0.903,2.403,0.749,3.432-0.383
		c3.095-3.403,3.12-8.485,0.096-11.958c-0.519-0.595-1.054-1.25-1.319-1.975c-0.592-1.604-0.202-3.07,0.919-4.384
		c1.242-1.452,0.88-3.024-0.821-3.872c-0.062-0.032-0.11-0.095-0.164-0.143c-0.414,0-0.829,0-1.243,0
		c-0.424,0.319-0.909,0.583-1.263,0.967c-3.151,3.41-3.146,8.495-0.01,12.054C70.344,23.729,70.418,25.659,68.658,27.847z"/>
	<path fill="#FFFFFF" d="M82.637,27.847c-0.935,1.167-0.885,2.506,0.13,3.387c1.036,0.9,2.406,0.748,3.432-0.383
		c3.091-3.396,3.117-8.49,0.097-11.958c-0.518-0.595-1.052-1.249-1.32-1.975c-0.595-1.604-0.201-3.07,0.923-4.384
		c1.238-1.452,0.876-3.024-0.823-3.872c-0.063-0.032-0.109-0.095-0.164-0.143c-0.414,0-0.828,0-1.242,0
		c-0.425,0.319-0.91,0.582-1.264,0.967c-3.154,3.41-3.147,8.491-0.011,12.053C84.325,23.729,84.398,25.653,82.637,27.847z"/>
	<path fill="#FFFFFF" d="M97.606,23.48c0.614,1.685,0.085,3.164-1.071,4.498c-0.9,1.039-0.761,2.41,0.214,3.256
		c0.974,0.845,2.332,0.772,3.271-0.211c1.5-1.574,2.343-3.446,2.469-5.624c0.147-2.558-0.638-4.793-2.383-6.667
		c-0.985-1.057-1.653-2.261-1.344-3.706c0.184-0.868,0.621-1.742,1.149-2.467c1.122-1.541,0.845-3.05-0.856-3.897
		c-0.063-0.032-0.109-0.095-0.164-0.143c-0.412,0-0.827,0-1.24,0c-0.425,0.319-0.91,0.583-1.266,0.967
		c-3.115,3.37-3.142,8.459-0.125,11.948C96.791,22.049,97.333,22.731,97.606,23.48z"/>
</g>
</svg>
