<?xml version="1.0" encoding="utf-8"?>
<!-- Generator: Adobe Illustrator 16.0.0, SVG Export Plug-In . SVG Version: 6.00 Build 0)  -->
<!DOCTYPE svg PUBLIC "-//W3C//DTD SVG 1.1//EN" "http://www.w3.org/Graphics/SVG/1.1/DTD/svg11.dtd">
<svg version="1.1" id="Layer_1" xmlns="http://www.w3.org/2000/svg" xmlns:xlink="http://www.w3.org/1999/xlink" x="0px" y="0px"
	 width="200px" height="200px" viewBox="0 0 200 200" enable-background="new 0 0 200 200" xml:space="preserve">
<g>
	<g>
		<path fill="#FFFFFF" d="M100.796,15.267c-0.09,0-0.179,0.003-0.269,0.003c-0.229-1.489-0.46-2.98-0.699-4.471
			C99.189,6.835,96.001,4.5,92.01,5.11c-18.65,2.835-37.297,5.684-55.941,8.547c-4.043,0.624-6.357,3.821-5.753,7.893
			c0.479,3.267,0.968,6.523,1.508,9.777c0.123,0.761-0.006,1.21-0.675,1.707c-1.94,1.445-2.875,3.466-2.592,5.862
			c0.352,3.004,0.855,5.987,1.349,8.965c0.086,0.547,0.291,0.977,0.587,1.29C18.176,64.55,10.794,84.06,10.794,105.266
			c0,25.593,10.738,48.724,27.943,65.126c5.869,5.648,12.49,10.515,19.707,14.416c0.011-0.042,0.025-0.086,0.036-0.129
			c12.624,6.751,27.029,10.587,42.315,10.587c49.625,0,89.998-40.374,89.998-90C190.794,55.64,150.421,15.267,100.796,15.267z
			 M36.227,18.105c0.385-0.125,0.81-0.15,1.213-0.214c18.142-2.772,36.281-5.547,54.424-8.32c2.674-0.409,3.346,0.09,3.752,2.762
			c0.49,3.21,0.979,6.41,1.491,9.728c-20.36,3.114-40.526,6.198-60.817,9.296c-0.571-3.744-1.187-7.43-1.669-11.133
			C34.481,19.169,35.192,18.424,36.227,18.105z M34.787,36.097c0.358-0.08,0.724-0.121,1.085-0.173
			c20.994-3.213,41.987-6.419,62.975-9.631c2.695-0.406,3.368,0.081,3.77,2.745c0.258,1.674,0.504,3.35,0.755,5.024
			c0.011,0.089-0.022,0.172-0.045,0.355c-23.067,3.524-46.161,7.055-69.418,10.609c-0.336-2.22-0.702-4.332-0.974-6.465
			C32.771,37.275,33.501,36.389,34.787,36.097z M89.901,52.1c-0.057,0.011-0.115,0.021-0.172,0.03
			c-2.833,0.531-5.702,0.886-8.55,1.333c-4.313,0.672-7.273,3.267-8.349,7.172c-0.079,4.892,1.229,7.723,2.042,9.001
			c0.098,0.114,0.194,0.214,0.292,0.348c2.005,2.687,5.141,3.544,8.495,3.095c3.312-0.442,6.604-1.028,9.92-1.464
			c0.511-0.069,1.259,0.181,1.614,0.555c2.124,2.24,4.205,4.523,6.257,6.83c0.019,0.134,0.041,0.263,0.06,0.397
			c3.212,24.179-4.342,39.54-4.342,39.54s-3.947-4.355-5.72-6.297c-1.778-1.936-2.794-3.153-2.794-3.153s2.947-5.231,3.963-9.342
			c1.011-4.113,1.519-8.326,0.853-13.364c-0.67-5.039-4.046-6.396-5.94-6.143c-1.9,0.253-4.827,2.611-6.638,6.542
			c-1.816,3.935-2.278,5.065-2.278,5.065s-2.488-7.919-3.557-13.149c-1.062-5.232-3.242-15.116-3.471-20.581
			c-0.23-5.463,0.233-7.495,0.258-8.811c0.038-1.316,0.055-2.778-1.429-2.814c-1.475-0.03-1.964,1.186-2.178,3.488
			c-0.214,2.31-0.941,8.216-0.226,13.618c0.718,5.402,1.645,12.375,2.477,17.145c0.839,4.766,2.459,9.884,3.442,14.755
			c0.97,4.877,2.778,16.651,3.201,19.839c0.424,3.183,0.643,7.252,0.618,10.494c-0.014,3.243-0.507,4.788-0.541,5.486
			c-0.03,0.705,0.563,1.447,1.501,0.786c0.937-0.655,1.575-2.013,2.153-5.411c0.568-3.4,0.814-9.625,0.77-11.751
			c-0.035-2.128-0.125-3.102-0.125-3.102s3.95,1.321,6.804,5.536c2.855,4.215,4.63,6.437,4.395,7.415
			c-0.246,0.974-1.486,3.64-4.164,5.436c-2.67,1.788-6.963,3.463-10.224,3.894c-3.267,0.436-6.362,0.416-6.362,0.416
			s-1.863-0.161-2.486,0.154c-0.571,0.282-0.694,1.543,0.361,2.3c-3.53,0.54-7.059,1.081-10.6,1.622
			c-0.746-3.336-1.481-6.634-2.218-9.956c4.032,4.332,5.246,5.019,6.181,4.938c0.97-0.087,2.045-1.51,0.61-2.98
			c-0.984-1.008-3.154-3.783-5.603-7.431c2.423-0.754,4.332-2.21,5.488-4.708c1.464-3.18,0.983-6.221-0.994-9.156
			c0,0,4.23-2.785,4.059-7.627c-0.006-1.125-0.059-2.251-0.391-3.284c-0.571-1.778-1.958-3.288-3.149-5.165
			c1.196-1.696,1.972-3.986,1.568-6.558c-0.395-2.531-1.754-4.471-3.86-6.054c2.439-3.537,2.619-7.009,0.437-10.623
			c-0.006-0.001-0.019-0.003-0.022-0.004c-0.047-0.102-0.107-0.193-0.158-0.287c-0.05-0.079-0.093-0.157-0.145-0.234
			c0,0,0.011-0.001,0.016-0.001c-1.904-3.154-6.549-3.461-6.657-3.47c-1.248,0.191-2.502,0.383-3.753,0.574
			c1.366-8.96,5.837-17.383,12.004-21.702c4.764-0.728,9.536-1.456,14.305-2.187C81.417,44.477,85.943,47.56,89.901,52.1z
			 M88.115,41.39c3.828-0.585,7.651-1.17,11.49-1.757c0.363,4.202,0.724,8.408,1.09,12.701c-0.383-0.035-0.618-0.012-0.814-0.082
			c-1.016-0.344-2.032-0.536-3.049-0.639C94.223,47.543,91.27,44.066,88.115,41.39z M105.492,109.66
			c0.616,7.327,1.231,14.642,1.849,21.996c-6.34,0.969-12.667,1.935-18.994,2.901c3.01-1.671,6.146-4.07,8.75-7.49
			C100.158,123.043,103.418,117.432,105.492,109.66z M86.205,107.843c-3.376,3.073-4.428,3.457-4.428,3.457l-1.956-13.84
			c0,0,1.465-5.014,3.665-7.318c2.199-2.306,5.359-2.845,6.233,3.747C90.595,100.486,89.573,104.771,86.205,107.843z M38.726,91.105
			c0.153,1.017,0.477,1.933,0.929,2.764l-24.621,7.497c0.075-1.525,0.191-3.036,0.344-4.538l23.256-7.082
			C38.635,90.191,38.658,90.641,38.726,91.105z M42.371,97.508c-1.155,1.697-1.77,3.472-1.745,5.401l-25.535,7.773
			c-0.095-1.597-0.15-3.201-0.155-4.82L42.371,97.508z M41.724,107.038c0.688,1.217,1.653,2.253,2.819,3.148
			c-0.128,0.229-0.177,0.357-0.257,0.463c-0.175,0.248-0.327,0.499-0.472,0.75l-27.697,8.432c-0.264-1.584-0.488-3.181-0.664-4.795
			L41.724,107.038z M42.611,116.229c0.075,1.6,0.584,3.127,1.439,4.431l-26,7.915c-0.413-1.49-0.784-3.002-1.119-4.525
			L42.611,116.229z M47.94,123.941c0.858,0.369,1.789,0.604,2.777,0.675c0.366,0.029,0.904,0.58,0.994,0.971
			c0.136,0.578,0.265,1.158,0.399,1.738l-31.3,9.529c-0.542-1.381-1.042-2.778-1.511-4.193L47.94,123.941z M53.063,131.499
			c0.311,1.382,0.626,2.765,0.934,4.148l-29.669,9.033c-0.65-1.271-1.265-2.563-1.853-3.87L53.063,131.499z M51.88,120.186
			c-2.363,0.261-4.48-1.391-4.829-3.702c-0.344-2.303,1.196-4.49,3.524-4.964c0.763-0.148,1.539-0.242,2.308-0.357
			c0.81-0.122,1.62-0.287,2.441-0.363c2.3-0.21,4.374,1.399,4.747,3.646c0.383,2.311-1.114,4.546-3.45,5.013
			C55.058,119.767,53.47,120.008,51.88,120.186z M58.893,105.772c-2.978,0.514-5.963,0.975-8.958,1.365
			c-2.365,0.315-4.5-1.344-4.867-3.646c-0.384-2.355,1.192-4.581,3.604-5.023c1.486-0.273,2.986-0.462,4.478-0.693
			c1.448-0.227,2.892-0.479,4.341-0.656c2.445-0.296,4.604,1.349,4.951,3.717C62.775,103.142,61.244,105.356,58.893,105.772z
			 M56.726,92.765c-2.841,0.476-5.687,0.915-8.542,1.31c-2.562,0.35-4.742-1.245-5.108-3.66c-0.371-2.417,1.24-4.574,3.783-5.014
			c1.4-0.241,2.807-0.437,4.208-0.648c1.445-0.223,2.89-0.471,4.341-0.663c2.461-0.317,4.634,1.254,5.026,3.607
			C60.836,90.106,59.237,92.345,56.726,92.765z M54.743,79.728c-2.89,0.482-5.783,0.931-8.688,1.323
			c-2.455,0.336-4.613-1.298-4.985-3.664c-0.359-2.375,1.199-4.558,3.637-5c1.492-0.271,2.987-0.467,4.483-0.692
			c1.395-0.216,2.8-0.458,4.206-0.636c2.522-0.332,4.723,1.299,5.059,3.723C58.79,77.145,57.197,79.313,54.743,79.728z
			 M40.137,84.824l-24.162,7.358c0.273-1.74,0.602-3.463,0.975-5.168l20.726-6.308c0.721,1.288,1.803,2.421,2.737,3.705
			C40.314,84.547,40.227,84.686,40.137,84.824z M38.699,71.022c-1.347,1.756-2.095,3.614-2.11,5.548l-18.426,5.612
			c0.527-1.873,1.121-3.719,1.767-5.536l18.841-5.736C38.747,70.947,38.725,70.991,38.699,71.022z M26.418,148.509l28.508-8.679
			c0.117,0.521,0.232,1.04,0.347,1.561c0.32,1.424,0.828,2.122,1.819,2.291c-0.041,0.073-0.076,0.145-0.115,0.215
			c-0.046,0.081-0.098,0.151-0.149,0.223l-27.896,8.493C28.054,151.272,27.221,149.901,26.418,148.509z M47.171,65.209
			c-0.142,0.84-0.26,1.615-0.366,2.362c-0.981,0.151-1.957,0.3-2.942,0.451c0.989-6.63,2.864-10.448,3.271-11.424
			c0.683-1.649,1.781-3.764,1.781-3.764s0.624-1.244,0.773-1.818c0.155-0.572-0.035-1.333-0.711-1.563
			c-0.681-0.235-1.492-0.451-2.851,1.854c0,0-2.376,3.276-4.407,9.283c-0.867-3.88-1.736-7.772-2.616-11.71
			c5.42-0.828,10.837-1.655,16.249-2.481C50.64,52.841,47.952,60.574,47.171,65.209z M21.93,71.573
			c0.833-1.938,1.74-3.833,2.712-5.695l12.888-3.925c0.336,1.522,0.669,3.043,1,4.565L21.93,71.573z M27.707,60.48
			c2.177-3.529,4.6-6.891,7.248-10.062c0.003,0.013,0.007,0.023,0.011,0.037c0.545,2.438,1.093,4.879,1.636,7.316L27.707,60.48z
			 M31.489,156.3l28.726-8.75c1.426,1.285,2.912,2.499,4.457,3.642l-30.044,9.148C33.542,159.024,32.494,157.679,31.489,156.3z
			 M60.403,143.362c16.366-2.499,32.738-5,49.104-7.506c1.882-0.296,2.491-1.111,2.33-3.006c-0.262-3.145-0.512-6.285-0.784-9.629
			c0.591,0.063,0.997,0.093,1.394,0.144c4.297,0.624,8.591,1.231,12.883,1.882c3.585,0.539,6.824-0.212,9.69-2.444
			c2.192-1.706,4.13-3.976,6.597-5.037c0.609-0.263,5.713-1.052,13.136-2.108c-5.596,25.129-28.062,43.969-54.849,43.969
			C84.52,159.626,70.56,153.411,60.403,143.362z M155.548,111.253c-8.17,1.114-13.891,1.91-14.533,2.041
			c-1.022,0.206-2.078,0.693-2.914,1.318c-1.943,1.453-3.745,3.082-5.627,4.607c-1.714,1.387-3.683,2.061-5.882,1.75
			c-5.256-0.737-10.491-1.531-15.831-2.311c-0.077-0.507-0.183-0.989-0.221-1.469c-0.851-10.133-1.686-20.263-2.538-30.389
			c-0.176-2.095-0.254-4.21-0.597-6.284c-0.165-1.017-0.628-2.128-1.293-2.899c-2.699-3.116-5.547-6.096-8.295-9.164
			c-1.069-1.204-2.291-1.667-3.906-1.392c-3.473,0.585-6.963,1.09-10.448,1.614c-3.338,0.489-6.101-1.399-6.601-4.496
			c-0.511-3.156,1.571-5.828,4.963-6.372c0.089-0.016,0.185-0.03,0.271-0.044c4.573-0.617,9.162-1.843,13.705-1.689
			c4.499,0.156,8.941,1.787,13.437,2.592c2.296,0.409,4.114,1.354,5.81,2.973c5.547,5.259,11.234,10.364,16.828,15.581
			c1.213,1.13,2.487,1.544,4.121,1.235c0.582-0.107,5.759-0.822,13.26-1.842c4.353,7.976,6.84,17.108,6.84,26.819
			C156.097,106.087,155.906,108.694,155.548,111.253z M136.925,73.88c-1.342,0.277-2.264-0.037-3.27-0.981
			c-5.875-5.509-11.813-10.967-17.781-16.369c-0.771-0.699-1.832-1.211-2.851-1.474c-2.558-0.662-5.167-1.132-7.836-1.691
			c-0.164-1.975-0.327-3.939-0.493-5.904c17.563,1.492,32.842,11.082,42.079,25.023C141.105,73.261,137.36,73.787,136.925,73.88z
			 M100.796,191.447c-23.216,0-44.313-9.229-59.823-24.207c-1.123-1.093-2.217-2.215-3.275-3.37l31.551-9.607
			c8.954,5.421,19.445,8.544,30.654,8.544c32.739,0,59.375-26.636,59.375-59.374c0-31.218-24.22-56.878-54.852-59.195
			c-0.153-1.784-0.3-3.571-0.45-5.383c0.172-0.027,0.336-0.052,0.494-0.076c24.386,1.333,45.325,15.8,55.848,36.436
			c0.114-0.027,0.232-0.044,0.347-0.068l2.492-1.348c-10.528-20.655-30.997-35.424-55.072-37.934
			c-0.014-0.158-0.022-0.311-0.049-0.486c-0.252-1.67-0.501-3.338-0.757-5.007c26.558,2.245,49.289,18.103,61.173,40.559
			l2.797-1.513c-12.5-23.601-36.505-40.204-64.5-42.289c-0.478-2.423-1.89-4.15-4.256-4.999c-0.773-0.273-1.052-0.651-1.161-1.42
			c-0.076-0.541-0.162-1.082-0.24-1.624c47.386,0.161,85.888,38.757,85.888,86.178C186.979,152.786,148.314,191.447,100.796,191.447
			z"/>
		<path fill="#FFFFFF" d="M76.471,163.476c-0.557-0.308-1.196-0.574-3.146,0.328l-3.994,1.865l-0.585-4.421
			c-0.112-0.902-0.274-2.187-1.39-2.801c-1.295-0.712-2.639-0.381-3.229,0.69c-0.492,0.891-0.33,1.969,0.022,4.489l0.926,4.753
			l-2.999,5.44c-0.738,1.336-0.298,2.598,0.95,3.283c1.206,0.665,2.524,0.376,3.263-0.96l2.999-5.439l4.745-1.858
			c2.286-1.036,3.125-1.446,3.58-2.271C78.201,165.505,77.743,164.175,76.471,163.476z"/>
		<path fill="#FFFFFF" d="M95.643,171.091c-0.407-1.891-1.265-3.182-2.95-3.439c-1.788-0.274-2.968,0.704-3.896,2.391l-5.812,10.363
			c-0.39,0.686-0.871,1.642-1.01,2.547c-0.189,1.234,0.576,2.124,1.961,2.335c1.232,0.189,2.043-0.228,2.906-1.998l0.439-1.017
			l6.091,0.935l0.2,1.214c0.185,1.472,0.704,2.451,2.138,2.673c1.383,0.211,2.355-0.412,2.545-1.644
			c0.146-0.958-0.034-1.963-0.233-3.025L95.643,171.091z M89.371,178.06l2.576-5.218l0.052,0.008l0.694,5.72L89.371,178.06z"/>
		<path fill="#FFFFFF" d="M126.979,166.661c-0.405-1.475-1.574-2.078-2.948-1.703c-1.349,0.369-2.095,1.498-1.692,2.97l1.883,6.896
			l-0.045,0.015l-8.961-6.045c-0.998-0.756-1.688-0.962-2.72-0.682c-1.425,0.388-1.934,1.504-1.541,2.953l3.578,13.082
			c0.401,1.475,1.594,2.072,2.971,1.696c1.349-0.369,2.069-1.491,1.669-2.963l-1.874-6.849l0.052-0.012l8.663,5.834
			c1.188,0.865,1.922,1.137,2.951,0.854c1.325-0.361,2-1.469,1.59-2.965L126.979,166.661z"/>
		<path fill="#FFFFFF" d="M141.112,157.972c-0.878-1.252-2.203-1.408-3.348-0.604c-1.166,0.819-1.468,2.118-0.591,3.368
			l7.808,11.123c0.881,1.25,2.203,1.41,3.372,0.591c1.145-0.806,1.444-2.104,0.567-3.354L141.112,157.972z"/>
		<path fill="#FFFFFF" d="M170.773,144.629l-11.095-7.803c-1.252-0.879-2.536-0.6-3.354,0.566c-0.806,1.145-0.661,2.491,0.587,3.368
			l5.85,4.113l-0.029,0.042l-10.76,1.054c-1.251,0.054-1.916,0.335-2.528,1.207c-0.851,1.208-0.533,2.394,0.694,3.259l11.097,7.802
			c1.251,0.878,2.55,0.579,3.37-0.588c0.806-1.144,0.647-2.468-0.602-3.347l-5.811-4.085l0.029-0.041l10.401-1.027
			c1.46-0.09,2.201-0.347,2.816-1.221C172.23,146.804,172.043,145.521,170.773,144.629z"/>
		<path fill="#FFFFFF" d="M173.41,111.444c-5.06-0.894-9.345,2.15-10.178,6.89l-0.907,5.137c-0.207,1.178,0.631,2.438,1.91,2.661
			l13.233,2.33c1.303,0.229,2.495-0.671,2.703-1.85l0.912-5.188C181.83,117.19,179.475,112.511,173.41,111.444z M176.548,121.504
			l-0.326,1.856l-9.074-1.599l0.363-2.054c0.41-2.332,2.226-3.693,5.133-3.181C175.578,117.045,176.99,118.997,176.548,121.504z"/>
		<path fill="#FFFFFF" d="M182.063,94.977c-0.27-1.218-0.947-1.825-2.915-1.993l-1.104-0.042l-1.322-6.017l1.061-0.623
			c1.306-0.704,2.035-1.542,1.725-2.96c-0.302-1.366-1.235-2.049-2.452-1.781c-0.944,0.208-1.818,0.74-2.737,1.306l-9.713,6.304
			c-1.62,1.059-2.515,2.324-2.148,3.99c0.389,1.765,1.725,2.513,3.635,2.771l11.756,1.69c0.783,0.115,1.848,0.219,2.744,0.022
			C181.808,97.377,182.363,96.344,182.063,94.977z M167.563,91.987l-0.009-0.05l5.086-2.707l0.722,3.281L167.563,91.987z"/>
	</g>
	<g>
		<g>
			<path fill="#FFFFFF" d="M172.474,80.187c-2.146,0-3.895-1.748-3.895-3.896c0-2.147,1.748-3.895,3.895-3.895
				c2.15,0,3.898,1.748,3.898,3.895C176.372,78.439,174.624,80.187,172.474,80.187z M172.474,72.974
				c-1.826,0-3.316,1.49-3.316,3.316c0,1.83,1.49,3.318,3.316,3.318c1.83,0,3.319-1.488,3.319-3.318
				C175.793,74.463,174.304,72.974,172.474,72.974z"/>
		</g>
		<g>
			<path fill="#FFFFFF" d="M171.271,77.724v-3.058c0-0.212,0.165-0.372,0.385-0.372h1.012c0.741,0,1.244,0.463,1.244,1.146
				c0,0.498-0.287,0.967-0.885,1.068l-0.096,0.006l0.863,0.927c0.094,0.096,0.158,0.196,0.158,0.33c0,0.176-0.152,0.354-0.389,0.354
				c-0.136,0-0.235-0.022-0.363-0.188l-1.149-1.398h-0.011v1.185c0,0.25-0.149,0.401-0.385,0.401
				C171.425,78.125,171.271,77.975,171.271,77.724z M172.647,75.958c0.293,0,0.494-0.181,0.494-0.476
				c0-0.303-0.217-0.479-0.494-0.479h-0.607v0.955H172.647z"/>
		</g>
	</g>
</g>
</svg>
