<?xml version="1.0" encoding="utf-8"?>
<!-- Generator: Adobe Illustrator 16.0.0, SVG Export Plug-In . SVG Version: 6.00 Build 0)  -->
<!DOCTYPE svg PUBLIC "-//W3C//DTD SVG 1.1//EN" "http://www.w3.org/Graphics/SVG/1.1/DTD/svg11.dtd">
<svg version="1.1" id="Layer_1" xmlns="http://www.w3.org/2000/svg" xmlns:xlink="http://www.w3.org/1999/xlink" x="0px" y="0px"
	 width="70px" height="330px" viewBox="0 0 70 330" enable-background="new 0 0 70 330" xml:space="preserve">
<g>
	<rect fill="#00534D" width="70" height="330"/>
	<g>
		<g>
			<g>
				
					<linearGradient id="SVGID_1_" gradientUnits="userSpaceOnUse" x1="38.4248" y1="85.2222" x2="42.8175" y2="66.1953" gradientTransform="matrix(1 0 0 -1 -8.3599 354.0547)">
					<stop  offset="0.0137" style="stop-color:#FFFFFF"/>
					<stop  offset="0.8551" style="stop-color:#FFFFFF;stop-opacity:0.1469"/>
					<stop  offset="1" style="stop-color:#FFFFFF;stop-opacity:0"/>
				</linearGradient>
				<path fill="url(#SVGID_1_)" d="M55.031,283.109c-2.661-8.557-10.739-14.795-20.268-14.795c-11.688,0-21.199,9.386-21.199,20.922
					c0,0.976,0.074,1.933,0.205,2.871c0.033,0,0.061-0.004,0.094-0.004c0.072,0,0.139,0.004,0.208,0.017
					c-0.135-0.944-0.211-1.904-0.211-2.884c0-11.375,9.376-20.629,20.903-20.629c9.374,0,17.327,6.123,19.967,14.531
					C54.825,283.121,54.925,283.109,55.031,283.109z"/>
			</g>
		</g>
		<g>
			<g>
				
					<linearGradient id="SVGID_2_" gradientUnits="userSpaceOnUse" x1="42.4355" y1="77.9878" x2="43.0295" y2="66.6547" gradientTransform="matrix(1 0 0 -1 -8.3599 354.0547)">
					<stop  offset="0.0137" style="stop-color:#FFFFFF"/>
					<stop  offset="0.8551" style="stop-color:#FFFFFF;stop-opacity:0.1469"/>
					<stop  offset="1" style="stop-color:#FFFFFF;stop-opacity:0"/>
				</linearGradient>
				<path fill="url(#SVGID_2_)" d="M34.764,276.344c6.216,0,11.416,4.438,12.601,10.312c0.044-0.004,0.089-0.008,0.136-0.008
					c0.06,0,0.11,0.004,0.164,0.009c-1.188-6.04-6.519-10.608-12.9-10.608c-6.857,0-12.504,5.277-13.097,11.982
					c0.104,0.003,0.202,0.017,0.293,0.035C22.536,281.508,28.056,276.344,34.764,276.344z"/>
			</g>
		</g>
		<path fill="#FFFFFF" d="M22.072,278.441l0.002-0.002c0.131-0.179,0.377-0.217,0.556-0.09l1.271,0.932
			c0.189,0.137,0.231,0.4,0.092,0.589l-1.417,1.942l-0.194-0.213l-3.321-2.424l-0.261-0.122l1.415-1.938
			c0.139-0.19,0.402-0.23,0.59-0.092l1.179,0.857C22.163,278.014,22.203,278.264,22.072,278.441z M20.789,278.229
			c-0.06-0.041-0.145-0.027-0.187,0.031l-0.391,0.534l0.714,0.519l0.389-0.533c0.044-0.059,0.03-0.145-0.028-0.187L20.789,278.229z
			 M22.194,279.255c-0.059-0.043-0.143-0.028-0.187,0.032l-0.391,0.534l0.779,0.567l0.39-0.537c0.045-0.06,0.03-0.143-0.027-0.187
			L22.194,279.255z"/>
		<path fill="#FFFFFF" d="M29.476,275.581l0.176,0.228l-2.326,1.162l-0.074-0.277l-1.84-3.68l-0.176-0.228l2.325-1.162l0.076,0.278
			l0.313,0.629l-1.341,0.672l0.333,0.666l1.173-0.586l0.43,0.861l-1.172,0.586l0.445,0.891l1.343-0.671L29.476,275.581z"/>
		<path fill="#FFFFFF" d="M36.488,274.689l0.053,0.283l-1.1-0.025l-0.899-2.688l-0.055,2.385l0.051,0.282l-1.1-0.024l0.064-0.28
			l0.093-4.11l-0.049-0.283l1.099,0.026l0.899,2.646l0.056-2.342l-0.051-0.283l1.098,0.023l-0.062,0.281L36.488,274.689z"/>
		<path fill="#FFFFFF" d="M47.137,281.773l-0.188,0.216l-0.662-0.875l0.259-0.126l1.948-1.476l-1.626,0.677l-0.192,0.146
			l-0.54-0.713l0.191-0.146l0.997-1.264l-1.83,1.383l-0.19,0.217l-0.662-0.877l0.258-0.125l3.291-2.486l0.189-0.217l0.662,0.879
			l-1.493,2.129l2.456-0.854v0.048l0.021-0.021l0.662,0.876l-0.262,0.125L47.137,281.773z"/>
		<g>
			<g>
				<path fill="#FFFFFF" d="M19.064,282.443c0.355-0.061,0.99,0.108,1.102,0.791c0.047,0.295-3.288,10.805-2.414,16.127
					c0.14,0.844,0.529,0.81,0.595,1.209c0.045,0.266-0.165,0.559-0.476,0.608c-1.198,0.196-1.563-1.655-1.648-2.175l-0.021-0.115
					c-0.353-2.16-0.093-3.037-0.121-3.214c-0.011-0.061-0.019-0.104-0.058-0.159c-0.325,0.146-2.006,4.416-4.239,4.782
					c-1.507,0.248-1.956-1.09-2.037-1.592c-0.367-2.22,0.863-5.642,3.064-6.003c0.681-0.112,1.396,0.088,2.18,0.598
					C18.592,285.208,17.438,282.709,19.064,282.443z M13.393,293.932c-1.506,0.248-2.189,2.289-2.14,4.147l0.011,0.073
					c0.063,0.385,0.151,0.552,0.314,0.524c0.857-0.141,3.013-4.11,2.949-4.493C14.501,294.021,13.984,293.832,13.393,293.932z"/>
			</g>
			<g>
				<path fill="#FFFFFF" d="M19.819,298.657c-0.201-1.214-0.051-6.399,0.936-6.562c0.372-0.062,0.729,0.077,0.847,0.804
					c0.008,0.043,0.002,0.104,0.01,0.147c0.113,1.15,0.001,2.035-0.341,5.856c-0.03,0.462-0.233,0.722-0.572,0.777
					C20.14,299.773,19.93,299.336,19.819,298.657z M20.911,288.881c0.295-0.049,0.917,0.123,1.023,0.771
					c0.085,0.52-0.327,1.146-0.74,1.217c-0.4,0.064-0.861-0.346-0.952-0.891C20.154,289.445,20.409,288.963,20.911,288.881z"/>
			</g>
			<g>
				<path fill="#FFFFFF" d="M25.807,303.212c-0.502-3.047,0.255-5.917,0.243-5.989l-0.009-0.061
					c-0.082-0.032-0.143-0.038-0.203-0.026c-0.133,0.021-0.269,0.12-0.653,0.183c-1.508,0.248-2.169-1.101-2.333-2.092
					c-0.194-1.168,0.021-4.572,1.189-4.767c0.37-0.062,0.677,0.239,0.716,0.476c0.068,0.414-0.358,0.592-0.424,0.938
					c-0.164,0.846-0.222,1.691-0.086,2.518c0.213,1.303,0.547,1.293,0.666,1.271l0.015-0.002c0.251-0.04,1.771-0.959,2.123-2.612
					c0.694-3.149,0.979-3.819,1.865-3.966c0.711-0.118,1.089,0.429,1.152,0.812c0.023,0.135-3.339,10.144-2.831,13.234
					c0.022,0.135,0.06,0.172,0.075,0.262c0.074,0.457-0.38,0.653-0.571,0.686C26.383,304.134,25.92,303.906,25.807,303.212z"/>
			</g>
			<g>
				<path fill="#FFFFFF" d="M32.156,295.214c0.025,0.146,0.144,0.78,0.512,0.722c0.711-0.119,2.088-2.819,2.315-4.574
					c0.186-1.442,0.596-1.812,1.026-1.885c0.147-0.022,0.902-0.057,1.039,0.771c0.097,0.591-0.679,4.271-0.45,5.661
					c0.105,0.649,0.828,0.151,0.938,0.817c0.063,0.369-0.218,0.9-0.821,1c-1.272,0.211-1.711-1.449-1.869-1.848
					c-0.503,0.629-1.025,1.428-1.987,1.586c-1.432,0.236-2.129-1.229-2.253-1.982c-0.275-1.67,0.353-5.781,2.424-6.123
					c0.28-0.045,1.506-0.065,1.728,1.279c0.066,0.398-0.242,0.465-0.272,0.471c-0.31,0.053-0.62-0.627-1.063-0.553
					C32.641,290.686,31.852,293.367,32.156,295.214z"/>
			</g>
			<g>
				<path fill="#FFFFFF" d="M38.693,295.457c-0.094-0.575-0.396-7.207,0.596-7.369c0.104-0.02,0.52-0.07,0.609,0.49
					c0.092,0.547,0.059,3.757,0.09,3.949c0.012,0.074,0.039,0.146,0.141,0.205c1.21-4.635,1.434-5.961,2.379-6.116
					c1.211-0.201,1.5,1.36,1.545,1.628c0.038,0.236,0.014,0.18,0.209,2.576c0.025,0.226,0.055,0.689-0.492,0.779
					c-0.812,0.135-1.08-1.111-1.209-1.621c-0.438,0.192-1.633,5.767-1.922,6.313c-0.15,0.282-0.354,0.515-0.68,0.565
					C38.967,297.021,38.727,295.648,38.693,295.457z"/>
			</g>
			<g>
				<path fill="#FFFFFF" d="M45.85,294.372c-0.199-1.213-0.054-6.399,0.938-6.563c0.369-0.06,0.729,0.078,0.846,0.803
					c0.008,0.045,0.004,0.104,0.012,0.148c0.111,1.152,0,2.036-0.342,5.857c-0.031,0.462-0.232,0.722-0.572,0.777
					C46.168,295.488,45.961,295.052,45.85,294.372z"/>
			</g>
			<g>
				<path fill="#FFFFFF" d="M50.852,289.902c0.754-1.414,1.485-5.728,2.877-5.955c0.369-0.061,1.082,0.019,1.273,1.188
					c0.08,0.488,0.062,0.657,0.076,3.875c0.201-0.246,2.538-6.445,2.938-7.148c0.209-0.385,0.549-0.639,0.889-0.693
					c0.09-0.016,1.053-0.158,1.265,1.129c0.241,1.462-1.009,8.456-0.627,10.762l0.024,0.162c0.062,0.371-0.164,0.637-0.492,0.689
					c-0.947,0.156-1.184-1.02-1.26-1.479l-0.017-0.088c-0.333-2.025-0.116-5.053-0.135-5.156l-0.019-0.117
					c-0.58,0.262-1.674,5.785-2.977,6c-0.74,0.123-1.113-0.394-1.271-1.354c-0.113-0.693-0.129-1.878-0.15-3.59
					c-0.521,0.163-2.09,5.934-2.122,6.014c-0.136,0.28-0.369,0.44-0.679,0.492c-0.858,0.141-1.125-0.834-1.184-1.188
					c-0.224-1.359-0.357-6.973,0.854-7.17c0.666-0.11,0.766,0.496,0.786,0.627C50.947,287.168,50.934,287.247,50.852,289.902z"/>
			</g>
		</g>
		<g>
			<path fill="#FFFFFF" d="M32.295,278.795c0,0,0.082-0.12,0.106-0.179c0.025-0.058,0.015-0.14-0.052-0.173
				c-0.067-0.034-0.149-0.067-0.323,0.154c0,0-1.187,1.246-1.187,3.596s0.859,4.121,1.232,4.647c0.37,0.524,0.488,0.615,0.591,0.619
				c0.099,0.004,0.232-0.129,0.103-0.301c-0.13-0.175-0.471-0.774-0.766-1.474c0,0-0.686-1.605-0.686-3.508
				c0-1.898,0.65-2.854,0.744-3.017C32.152,279.003,32.295,278.795,32.295,278.795"/>
			<path fill="#FFFFFF" d="M34.92,277.304c-1.616,0-2.707,1.886-2.976,2.757c-0.271,0.875-0.273,1.254-0.273,1.707
				c0,0.451,0.169,1.213,0.476,1.635c0.308,0.423,0.436,0.482,0.513,0.556c0.079,0.071,0.211-0.133,0.055-0.338
				c-0.157-0.206-0.592-0.634-0.592-2.263c0-1.631,1.175-3.36,2.497-3.36c1.321,0,2.796,1.731,2.796,4.3c0,2.566-1,4.064-1,4.064
				s-0.354-0.508-0.51-0.734c-0.159-0.229-0.25-0.368-0.25-0.368s0.38-0.504,0.542-0.919c0.163-0.416,0.276-0.849,0.276-1.383
				c0-0.535-0.336-0.725-0.537-0.725s-0.539,0.207-0.783,0.593c-0.246,0.383-0.308,0.495-0.308,0.495s-0.15-0.86-0.188-1.42
				c-0.039-0.562-0.129-1.623-0.079-2.195c0.054-0.573,0.13-0.778,0.15-0.917c0.021-0.138,0.045-0.29-0.109-0.313
				c-0.154-0.022-0.223,0.096-0.277,0.334c-0.054,0.234-0.213,0.842-0.213,1.416c0,0.573,0,1.314,0.021,1.823
				c0.023,0.511,0.12,1.065,0.155,1.587c0.035,0.523,0.06,1.775,0.06,2.114s-0.034,0.767-0.081,1.106
				c-0.047,0.336-0.12,0.49-0.134,0.563c-0.013,0.072,0.042,0.158,0.146,0.101c0.106-0.056,0.194-0.188,0.301-0.531
				c0.106-0.35,0.218-0.995,0.242-1.217c0.026-0.224,0.032-0.326,0.032-0.326s0.392,0.192,0.631,0.673
				c0.241,0.479,0.396,0.737,0.357,0.834c-0.038,0.097-0.207,0.358-0.512,0.509c-0.302,0.15-0.77,0.268-1.12,0.268
				c-0.346,0-0.668-0.047-0.668-0.047s-0.194-0.043-0.261-0.019c-0.071,0.024-0.104,0.178,0.036,0.271
				c0.139,0.094,0.495,0.157,0.862,0.157c0.366,0,1.346-0.128,2.094-0.883c0.75-0.752,1.669-2.153,1.669-4.836
				S36.541,277.304,34.92,277.304 M35.426,285.053c-0.396,0.273-0.511,0.299-0.511,0.299l-0.012-1.472c0,0,0.223-0.502,0.484-0.711
				c0.261-0.212,0.597-0.224,0.597,0.478S35.818,284.777,35.426,285.053"/>
		</g>
		<g>
			<path fill="#FFFFFF" d="M30.397,303.559c-0.023-0.205,0.15-0.418,0.368-0.44c0.213-0.022,0.442,0.143,0.466,0.354
				c0.021,0.188-0.114,0.402-0.297,0.424C30.752,303.913,30.413,303.725,30.397,303.559z"/>
			<path fill="#FFFFFF" d="M33.504,299.686c0.388-0.041,0.755,0.203,0.796,0.596c0.02,0.162-0.039,0.479-0.233,0.502
				c-0.249,0.025-0.203-0.413-0.422-0.391c-0.543,0.06-1.419,1.541-1.382,1.902c0.016,0.141,0.157,0.155,0.43,0.127l0.037-0.004
				c0.847-0.139,1.54-0.604,1.661-0.616c0.145-0.016,0.244,0.107,0.255,0.21c0.042,0.4-1.47,1.149-2.148,1.221
				c-0.586,0.062-0.998-0.241-1.052-0.745C31.352,301.598,32.553,299.787,33.504,299.686z"/>
			<path fill="#FFFFFF" d="M35.149,301.915c-0.014-0.138-0.071-1.351,0.654-2.197c0.131-0.157,0.01-0.528,0.567-0.588
				c0.374-0.04,1.321,0.233,1.403,1.001c0.002,0.024,0.004,0.042,0.002,0.067v0.013c0.088,0.823-0.731,2.544-1.641,2.643
				C35.906,302.877,35.245,302.818,35.149,301.915z M35.902,301.75c0.025,0.12,0.05,0.352,0.182,0.335
				c0.346-0.035,1.075-1.172,1.001-1.862c-0.026-0.262-0.306-0.459-0.415-0.445C36.643,299.781,35.896,299.969,35.902,301.75z"/>
			<path fill="#FFFFFF" d="M38.893,300.68c0.338-0.556,0.733-2.287,1.305-2.348c0.15-0.018,0.437,0.033,0.488,0.512
				c0.021,0.198,0.012,0.268-0.061,1.573c0.088-0.097,1.18-2.556,1.357-2.832c0.095-0.151,0.236-0.245,0.377-0.261
				c0.035-0.006,0.429-0.04,0.486,0.486c0.062,0.601-0.605,3.404-0.506,4.35l0.008,0.066c0.016,0.151-0.082,0.254-0.217,0.269
				c-0.388,0.042-0.457-0.44-0.477-0.629l-0.004-0.035c-0.088-0.831,0.07-2.052,0.064-2.095l-0.004-0.049
				c-0.244,0.095-0.814,2.308-1.348,2.364c-0.303,0.032-0.442-0.186-0.484-0.579c-0.029-0.283-0.009-0.764,0.021-1.459
				c-0.215,0.055-0.983,2.358-1,2.391c-0.062,0.111-0.158,0.17-0.287,0.184c-0.35,0.037-0.434-0.363-0.451-0.51
				c-0.061-0.557,0.018-2.835,0.514-2.889c0.271-0.026,0.299,0.221,0.305,0.274C38.993,299.573,38.982,299.605,38.893,300.68z"/>
		</g>
		<g>
			<polygon fill="#FFFFFF" points="41.914,273.17 40.561,275.918 40.383,276.145 41.369,276.632 41.443,276.354 42.8,273.607 			"/>
			<polygon fill="#FFFFFF" points="42.982,273.236 43.264,272.667 43.438,272.439 42.452,271.954 42.378,272.23 42.1,272.8 			"/>
		</g>
	</g>
</g>
<g>
	<path fill="#D78935" d="M34.142,252.366c-6.199,0-10.097-3.844-10.097-9.664c0-5.738,3.871-9.637,10.097-9.637
		c6.063,0,10.096,3.735,10.096,9.637C44.238,248.495,40.286,252.366,34.142,252.366z M34.142,238.128
		c-3.33,0-5.766,1.624-5.766,4.602c0,2.842,2.355,4.574,5.766,4.574c3.492,0,5.765-1.813,5.765-4.574
		C39.907,239.778,37.498,238.128,34.142,238.128z"/>
	<path fill="#D78935" d="M41.559,231.498H26.752c-1.489,0-2.409-0.866-2.409-2.301c0-1.056,0.406-1.598,1.354-2.328l9.555-7.877
		v-0.055h-8.527c-1.489,0-2.382-0.975-2.382-2.354c0-1.408,0.893-2.355,2.382-2.355h14.806c1.517,0,2.409,0.947,2.409,2.328
		c0,1.028-0.46,1.624-1.569,2.518l-9.339,7.66v0.055h8.526c1.489,0,2.382,0.974,2.382,2.354S43.048,231.498,41.559,231.498z"/>
	<path fill="#D78935" d="M41.478,212.173H26.725c-1.489,0-2.382-0.975-2.382-2.355c0-1.38,0.893-2.354,2.382-2.354H39.42v-4.71
		c0-1.354,0.785-2.302,2.166-2.302c1.326,0,2.192,0.975,2.192,2.274v7.146C43.778,211.117,42.776,212.173,41.478,212.173z"/>
	<path fill="#D78935" d="M41.559,199.75H26.725c-1.489,0-2.382-0.975-2.382-2.355s0.893-2.354,2.382-2.354h14.833
		c1.489,0,2.382,0.974,2.382,2.354S43.048,199.75,41.559,199.75z"/>
	<path fill="#D78935" d="M41.559,192.983H26.752c-1.489,0-2.409-0.866-2.409-2.301c0-1.056,0.406-1.598,1.354-2.328l9.555-7.877
		v-0.055h-8.527c-1.489,0-2.382-0.975-2.382-2.354c0-1.408,0.893-2.355,2.382-2.355h14.806c1.517,0,2.409,0.947,2.409,2.328
		c0,1.028-0.46,1.624-1.569,2.518l-9.339,7.66v0.055h8.526c1.489,0,2.382,0.975,2.382,2.354
		C43.94,192.009,43.048,192.983,41.559,192.983z"/>
	<path fill="#D78935" d="M41.478,173.658H26.807c-1.299,0-2.301-1.056-2.301-2.274v-6.903c0-1.299,0.866-2.247,2.193-2.247
		c1.38,0,2.166,0.947,2.166,2.247v4.494h3.032v-4.087c0-1.327,0.812-2.247,2.192-2.247c1.354,0,2.165,0.866,2.165,2.247v4.061h3.167
		v-4.576c0-1.38,0.785-2.273,2.166-2.273c1.326,0,2.192,0.92,2.192,2.247v7.038C43.778,172.603,42.776,173.658,41.478,173.658z"/>
	<path fill="#D78935" d="M43.183,152.438c-0.568,1.001-1.299,1.705-2.246,1.705c-1.3,0-2.437-0.812-2.437-2.247
		c0-0.406,0.135-0.785,0.298-1.272c0.298-0.92,0.785-2.003,0.785-3.465c0-1.326-0.596-2.084-1.517-2.084
		c-0.947,0-1.435,0.839-1.976,2.517c-0.92,3.113-1.786,6.226-5.765,6.226c-4.006,0-6.28-2.923-6.28-7.119
		c0-1.489,0.217-2.707,0.596-3.627c0.514-1.272,1.38-1.976,2.436-1.976c1.272,0,2.193,0.839,2.193,2.112
		c0,0.379-0.054,0.704-0.136,1.001c-0.216,0.758-0.568,1.489-0.568,2.68c0,1.11,0.487,1.868,1.354,1.868s1.11-0.975,1.678-2.68
		c1.164-3.627,2.139-6.091,6.171-6.091c4.088,0,6.47,2.87,6.47,7.499C44.238,149.244,43.887,151.111,43.183,152.438z"/>
	<path fill="#D78935" d="M41.559,138.418H26.725c-1.489,0-2.382-0.974-2.382-2.355c0-1.38,0.893-2.355,2.382-2.355h4.981v-7.85
		h-4.981c-1.489,0-2.382-0.974-2.382-2.355c0-1.38,0.893-2.355,2.382-2.355h14.833c1.489,0,2.382,0.975,2.382,2.355
		c0,1.381-0.893,2.355-2.382,2.355h-5.468v7.85h5.468c1.489,0,2.382,0.975,2.382,2.355C43.94,137.444,43.048,138.418,41.559,138.418
		z"/>
	<path fill="#D78935" d="M34.142,119.58c-6.199,0-10.097-3.844-10.097-9.664c0-5.739,3.871-9.637,10.097-9.637
		c6.063,0,10.096,3.736,10.096,9.637C44.238,115.709,40.286,119.58,34.142,119.58z M34.142,105.342c-3.33,0-5.766,1.624-5.766,4.602
		c0,2.842,2.355,4.574,5.766,4.574c3.492,0,5.765-1.813,5.765-4.574C39.907,106.993,37.498,105.342,34.142,105.342z"/>
	<path fill="#D78935" d="M41.559,98.712H26.807c-1.299,0-2.301-1.056-2.301-2.273v-5.658c0-3.113,2.193-6.551,6.443-6.551
		c4.277,0,6.794,2.544,6.794,6.416v3.356h3.816c1.489,0,2.382,0.975,2.382,2.355C43.94,97.738,43.048,98.712,41.559,98.712z
		 M33.547,91.755c0-1.516-0.975-2.653-2.409-2.653c-1.625,0-2.463,1.11-2.463,2.599v2.301h4.873V91.755z"/>
	<path fill="#D78935" d="M41.559,82.933H26.807c-1.299,0-2.301-1.056-2.301-2.273v-5.658c0-3.113,2.193-6.551,6.443-6.551
		c4.277,0,6.794,2.544,6.794,6.416v3.356h3.816c1.489,0,2.382,0.975,2.382,2.355C43.94,81.958,43.048,82.933,41.559,82.933z
		 M33.547,75.976c0-1.516-0.975-2.653-2.409-2.653c-1.625,0-2.463,1.11-2.463,2.599v2.301h4.873V75.976z"/>
	<path fill="#D78935" d="M41.559,67.153H26.725c-1.489,0-2.382-0.974-2.382-2.355c0-1.38,0.893-2.355,2.382-2.355h14.833
		c1.489,0,2.382,0.975,2.382,2.355C43.94,66.179,43.048,67.153,41.559,67.153z"/>
	<path fill="#D78935" d="M41.559,60.387H26.752c-1.489,0-2.409-0.866-2.409-2.301c0-1.056,0.406-1.597,1.354-2.328l9.555-7.877
		v-0.054h-8.527c-1.489,0-2.382-0.974-2.382-2.355c0-1.407,0.893-2.355,2.382-2.355h14.806c1.517,0,2.409,0.948,2.409,2.328
		c0,1.028-0.46,1.624-1.569,2.518l-9.339,7.66v0.054h8.526c1.489,0,2.382,0.975,2.382,2.355
		C43.94,59.413,43.048,60.387,41.559,60.387z"/>
	<path fill="#D78935" d="M34.305,41.549c-6.037,0-10.259-4.087-10.259-9.636c0-2.437,0.65-4.765,1.787-6.145
		c0.677-0.893,1.543-1.435,2.599-1.435c1.11,0,1.949,0.812,1.949,2.084c0,0.649-0.297,1.164-0.649,1.705
		c-0.487,0.758-1.354,1.76-1.354,3.6c0,2.761,2.382,4.764,5.766,4.764c3.33,0,5.765-1.759,5.765-4.656
		c0-2.057-1.299-3.654-3.275-3.898v2.463c0,1.38-0.812,2.274-2.165,2.274c-1.408,0-2.193-0.894-2.193-2.247v-5.008
		c0-1.435,0.866-2.355,2.842-2.355c5.25,0,9.122,3.763,9.122,8.716C44.238,38.355,39.339,41.549,34.305,41.549z"/>
</g>
</svg>
