<?xml version="1.0" encoding="utf-8"?>
<!-- Generator: Adobe Illustrator 16.0.0, SVG Export Plug-In . SVG Version: 6.00 Build 0)  -->
<!DOCTYPE svg PUBLIC "-//W3C//DTD SVG 1.1//EN" "http://www.w3.org/Graphics/SVG/1.1/DTD/svg11.dtd">
<svg version="1.1" id="Layer_1" xmlns="http://www.w3.org/2000/svg" xmlns:xlink="http://www.w3.org/1999/xlink" x="0px" y="0px"
	 width="70px" height="330px" viewBox="0 0 70 330" enable-background="new 0 0 70 330" xml:space="preserve">
<g>
	<rect fill-rule="evenodd" clip-rule="evenodd" fill="#00534D" width="70" height="330"/>
	<g>
		<path fill="#D78935" d="M34.474,250.568c-6.205,0-10.045-3.896-10.045-9.806c0-5.802,3.76-9.777,10.072-9.777
			c6.124,0,10.072,3.789,10.072,9.777C44.573,246.619,40.733,250.568,34.474,250.568z M34.474,236.438
			c-3.088,0-5.345,1.53-5.345,4.353c0,2.659,2.176,4.324,5.372,4.324c3.356,0,5.372-1.8,5.372-4.324
			C39.873,237.997,37.671,236.438,34.474,236.438z"/>
		<path fill="#D78935" d="M41.673,229.053H27.356c-1.585,0-2.579-0.832-2.579-2.391c0-1.128,0.404-1.772,1.452-2.579l8.649-7.439
			v-0.053h-7.548c-1.612,0-2.552-1.075-2.552-2.553c0-1.505,0.94-2.525,2.552-2.525h14.317c1.639,0,2.579,0.994,2.579,2.444
			c0,1.128-0.484,1.801-1.692,2.767l-8.355,7.199v0.054h7.495c1.612,0,2.553,1.048,2.553,2.524
			C44.226,228.005,43.285,229.053,41.673,229.053z"/>
		<path fill="#D78935" d="M41.565,209.095H27.329c-1.612,0-2.552-1.047-2.552-2.551c0-1.478,0.94-2.525,2.552-2.525h12.032v-4.593
			c0-1.504,0.835-2.499,2.339-2.499c1.424,0,2.363,1.021,2.363,2.444v7.253C44.063,207.967,42.989,209.095,41.565,209.095z"/>
		<path fill="#D78935" d="M41.673,195.772H27.329c-1.612,0-2.552-1.047-2.552-2.551c0-1.478,0.94-2.525,2.552-2.525h14.344
			c1.612,0,2.553,1.048,2.553,2.525C44.226,194.726,43.285,195.772,41.673,195.772z"/>
		<path fill="#D78935" d="M41.673,188.279H27.356c-1.585,0-2.579-0.833-2.579-2.39c0-1.129,0.404-1.773,1.452-2.579l8.649-7.44
			v-0.054h-7.548c-1.612,0-2.552-1.074-2.552-2.552c0-1.505,0.94-2.524,2.552-2.524h14.317c1.639,0,2.579,0.992,2.579,2.443
			c0,1.127-0.484,1.801-1.692,2.766l-8.355,7.199v0.055h7.495c1.612,0,2.553,1.048,2.553,2.524
			C44.226,187.231,43.285,188.279,41.673,188.279z"/>
		<path fill="#D78935" d="M41.592,168.322H27.409c-1.369,0-2.471-1.154-2.471-2.417v-6.903c0-1.396,0.94-2.417,2.363-2.417
			c1.505,0,2.338,1.021,2.338,2.417v4.271h2.417v-3.868c0-1.424,0.887-2.418,2.364-2.418s2.364,0.94,2.364,2.418v3.84h2.577v-4.352
			c0-1.477,0.835-2.444,2.339-2.444c1.424,0,2.363,0.994,2.363,2.417v7.037C44.063,167.168,42.989,168.322,41.592,168.322z"/>
		<path fill="#D78935" d="M42.103,147.723c-0.968,0-2.041-0.35-2.82-0.645l-11.738-4.405c-1.907-0.698-3.115-1.773-3.115-3.68
			c0-1.8,1.208-2.901,3.115-3.626l11.443-4.298c1.074-0.375,2.095-0.725,3.115-0.725c1.316,0,2.123,0.913,2.123,2.39
			c0,1.532-0.94,2.23-2.444,2.659l-1.236,0.404v6.5l1.128,0.295c1.986,0.618,2.553,1.396,2.553,2.713
			C44.226,146.783,43.419,147.723,42.103,147.723z M35.817,137.247l-5.856,1.639v0.054l5.856,1.854V137.247z"/>
		<path fill="#D78935" d="M41.565,129.001H27.329c-1.612,0-2.552-1.048-2.552-2.552c0-1.477,0.94-2.525,2.552-2.525h12.032v-4.593
			c0-1.504,0.835-2.498,2.339-2.498c1.424,0,2.363,1.021,2.363,2.444v7.253C44.063,127.873,42.989,129.001,41.565,129.001z"/>
		<path fill="#D78935" d="M41.673,115.679H27.329c-1.612,0-2.552-1.048-2.552-2.552c0-1.477,0.94-2.525,2.552-2.525h14.344
			c1.612,0,2.553,1.048,2.553,2.525C44.226,114.631,43.285,115.679,41.673,115.679z"/>
		<path fill="#D78935" d="M49.059,105.205c-0.455,0-1.021-0.35-1.021-0.779c0-0.403,0.431-1.021,0.431-1.397
			c0-0.429-0.296-0.967-0.914-0.967c-0.402,0-0.752,0.269-0.752,0.967v0.35c0,0.268-0.215,0.59-0.724,0.59
			c-0.243,0-0.699-0.215-1.183-0.671l-0.351-0.296c-0.079,1.531-0.455,3.144-1.072,4.298c-0.566,1.074-1.345,1.799-2.339,1.799
			c-1.396,0-2.525-0.94-2.525-2.39c0-0.377,0.082-0.806,0.217-1.29c0.269-0.941,0.778-2.041,0.778-3.545
			c0-1.209-0.457-1.719-1.209-1.719c-0.832,0-1.234,0.779-1.718,2.363c-0.833,2.954-1.586,6.257-5.723,6.257
			c-4.109,0-6.526-2.9-6.526-7.306c0-1.369,0.161-2.498,0.457-3.384c0.51-1.53,1.424-2.336,2.659-2.336
			c1.371,0,2.338,0.859,2.338,2.283c0,0.376-0.054,0.698-0.107,1.021c-0.081,0.725-0.431,1.396-0.431,2.632
			c0,0.994,0.376,1.584,1.128,1.584c0.779,0,0.859-0.914,1.37-2.525c1.155-3.6,2.069-6.097,6.232-6.097
			c3.814,0,6.017,2.336,6.419,6.205l1.074,0.833l0.027-0.027c-0.054-0.215-0.081-0.323-0.081-0.538c0-1.289,0.752-2.336,2.392-2.336
			c1.585,0,2.498,1.907,2.498,3.519C50.403,103.995,49.945,105.205,49.059,105.205z"/>
		<path fill="#D78935" d="M42.398,88.041l-13.699,5.587c-0.94,0.376-1.155,0.403-1.477,0.403c-1.236,0-2.446-0.914-2.446-2.39
			c0-1.37,0.404-2.096,2.473-2.901l8.353-3.25v-0.054l-8.085-3.115c-2.148-0.833-2.741-1.37-2.741-3.009
			c0-1.37,1.209-2.391,2.446-2.391c0.321,0,0.806,0.108,1.719,0.484l13.537,5.667c1.102,0.457,1.747,1.208,1.747,2.471
			C44.226,86.778,43.554,87.557,42.398,88.041z"/>
		<path fill="#D78935" d="M41.592,75.82H27.409c-1.369,0-2.471-1.155-2.471-2.417V66.5c0-1.396,0.94-2.417,2.363-2.417
			c1.505,0,2.338,1.02,2.338,2.417v4.271h2.417v-3.868c0-1.424,0.887-2.417,2.364-2.417s2.364,0.94,2.364,2.417v3.841h2.577v-4.352
			c0-1.476,0.835-2.443,2.339-2.443c1.424,0,2.363,0.994,2.363,2.417v7.038C44.063,74.666,42.989,75.82,41.592,75.82z"/>
		<path fill="#D78935" d="M41.673,62.364H27.409c-1.396,0-2.471-1.155-2.471-2.417v-5.614c0-3.841,2.363-6.554,6.178-6.554
			c2.096,0,4.324,1.048,5.184,3.68l0.053,0.161l3.305-3.036c0.617-0.563,1.344-1.074,2.177-1.074c1.101,0,2.391,0.859,2.391,2.713
			c0,0.913-0.404,1.692-1.559,2.552l-6.017,4.458v0.054h5.022c1.612,0,2.553,1.047,2.553,2.525
			C44.226,61.317,43.285,62.364,41.673,62.364z M32.97,54.495c0-0.941-0.698-1.639-1.746-1.639c-1.074,0-1.584,0.886-1.584,1.639
			v2.793h3.331V54.495z"/>
		<path fill="#D78935" d="M20.56,45.632c-1.289,0-2.336-1.048-2.336-2.337c0-1.289,1.048-2.336,2.336-2.336
			c1.263,0,2.311,1.047,2.311,2.336C22.871,44.584,21.823,45.632,20.56,45.632z M41.673,45.819H27.329
			c-1.612,0-2.552-1.047-2.552-2.552c0-1.477,0.94-2.524,2.552-2.524h14.344c1.612,0,2.553,1.047,2.553,2.524
			C44.226,44.772,43.285,45.819,41.673,45.819z"/>
		<path fill="#D78935" d="M49.059,35.344c-0.455,0-1.021-0.35-1.021-0.779c0-0.403,0.431-1.021,0.431-1.397
			c0-0.43-0.296-0.966-0.914-0.966c-0.402,0-0.752,0.269-0.752,0.966v0.349c0,0.269-0.215,0.591-0.724,0.591
			c-0.243,0-0.699-0.214-1.183-0.671l-0.351-0.296c-0.079,1.531-0.455,3.143-1.072,4.298c-0.566,1.074-1.345,1.8-2.339,1.8
			c-1.396,0-2.525-0.94-2.525-2.391c0-0.376,0.082-0.806,0.217-1.289c0.269-0.941,0.778-2.042,0.778-3.546
			c0-1.208-0.457-1.719-1.209-1.719c-0.832,0-1.234,0.779-1.718,2.363c-0.833,2.956-1.586,6.259-5.723,6.259
			c-4.109,0-6.526-2.901-6.526-7.306c0-1.37,0.161-2.498,0.457-3.384c0.51-1.531,1.424-2.337,2.659-2.337
			c1.371,0,2.338,0.859,2.338,2.284c0,0.376-0.054,0.698-0.107,1.021c-0.081,0.725-0.431,1.396-0.431,2.632
			c0,0.994,0.376,1.585,1.128,1.585c0.779,0,0.859-0.914,1.37-2.525c1.155-3.6,2.069-6.098,6.232-6.098
			c3.814,0,6.017,2.336,6.419,6.205l1.074,0.833l0.027-0.027c-0.054-0.214-0.081-0.322-0.081-0.537c0-1.29,0.752-2.337,2.392-2.337
			c1.585,0,2.498,1.907,2.498,3.519C50.403,34.135,49.945,35.344,49.059,35.344z"/>
	</g>
	<g>
		<g>
			<g>
				<linearGradient id="SVGID_1_" gradientUnits="userSpaceOnUse" x1="30.0654" y1="268.832" x2="34.4581" y2="287.8589">
					<stop  offset="0.0137" style="stop-color:#FFFFFF"/>
					<stop  offset="0.8551" style="stop-color:#FFFFFF;stop-opacity:0.1469"/>
					<stop  offset="1" style="stop-color:#FFFFFF;stop-opacity:0"/>
				</linearGradient>
				<path fill="url(#SVGID_1_)" d="M55.031,283.109c-2.661-8.556-10.739-14.795-20.268-14.795c-11.688,0-21.199,9.386-21.199,20.922
					c0,0.976,0.074,1.933,0.205,2.872c0.033-0.001,0.061-0.004,0.094-0.004c0.072,0,0.139,0.004,0.208,0.016
					c-0.135-0.944-0.211-1.904-0.211-2.884c0-11.375,9.376-20.629,20.903-20.629c9.374,0,17.327,6.123,19.967,14.532
					C54.825,283.121,54.925,283.11,55.031,283.109z"/>
			</g>
		</g>
		<g>
			<g>
				<linearGradient id="SVGID_2_" gradientUnits="userSpaceOnUse" x1="34.0742" y1="276.0654" x2="34.6682" y2="287.3995">
					<stop  offset="0.0137" style="stop-color:#FFFFFF"/>
					<stop  offset="0.8551" style="stop-color:#FFFFFF;stop-opacity:0.1469"/>
					<stop  offset="1" style="stop-color:#FFFFFF;stop-opacity:0"/>
				</linearGradient>
				<path fill="url(#SVGID_2_)" d="M34.764,276.344c6.217,0,11.415,4.438,12.601,10.312c0.044-0.003,0.089-0.007,0.136-0.007
					c0.059,0,0.111,0.004,0.164,0.008c-1.188-6.04-6.519-10.608-12.9-10.608c-6.857,0-12.504,5.277-13.097,11.982
					c0.104,0.003,0.202,0.017,0.293,0.035C22.536,281.508,28.056,276.344,34.764,276.344z"/>
			</g>
		</g>
		<path fill="#FFFFFF" d="M22.072,278.441l0.002-0.002c0.131-0.178,0.377-0.217,0.556-0.089l1.271,0.931
			c0.189,0.137,0.231,0.401,0.092,0.589l-1.417,1.942l-0.194-0.212l-3.321-2.424l-0.261-0.122l1.415-1.939
			c0.139-0.19,0.402-0.23,0.59-0.092l1.179,0.858C22.163,278.013,22.203,278.264,22.072,278.441z M20.789,278.229
			c-0.06-0.042-0.145-0.028-0.187,0.031l-0.391,0.534l0.714,0.519l0.389-0.534c0.044-0.059,0.03-0.144-0.028-0.186L20.789,278.229z
			 M22.194,279.255c-0.059-0.043-0.143-0.028-0.187,0.032l-0.391,0.534l0.779,0.568l0.39-0.537c0.045-0.06,0.03-0.143-0.027-0.187
			L22.194,279.255z"/>
		<path fill="#FFFFFF" d="M29.476,275.581l0.176,0.228l-2.326,1.162l-0.074-0.278l-1.84-3.679l-0.176-0.228l2.325-1.162l0.076,0.278
			l0.313,0.629l-1.341,0.672l0.333,0.666l1.173-0.586l0.43,0.862l-1.172,0.585l0.445,0.891l1.343-0.671L29.476,275.581z"/>
		<path fill="#FFFFFF" d="M36.488,274.69l0.053,0.282l-1.1-0.025l-0.899-2.687l-0.055,2.384l0.051,0.283l-1.1-0.024l0.064-0.281
			l0.093-4.11l-0.049-0.283l1.099,0.026l0.899,2.645l0.055-2.342l-0.05-0.283l1.098,0.024l-0.062,0.281L36.488,274.69z"/>
		<path fill="#FFFFFF" d="M47.137,281.774l-0.189,0.215l-0.662-0.875l0.259-0.126l1.948-1.475l-1.626,0.677l-0.192,0.146
			l-0.54-0.713l0.191-0.146l0.997-1.264l-1.83,1.383l-0.19,0.216l-0.662-0.876l0.258-0.125l3.29-2.487l0.19-0.216l0.662,0.878
			l-1.493,2.129l2.456-0.854v0.048l0.022-0.021l0.661,0.876l-0.261,0.125L47.137,281.774z"/>
		<g>
			<g>
				<path fill="#FFFFFF" d="M19.064,282.443c0.355-0.06,0.99,0.109,1.102,0.791c0.047,0.295-3.288,10.805-2.414,16.128
					c0.14,0.843,0.529,0.809,0.595,1.208c0.045,0.266-0.165,0.559-0.476,0.609c-1.198,0.196-1.563-1.656-1.648-2.175l-0.021-0.116
					c-0.353-2.159-0.093-3.037-0.121-3.213c-0.011-0.061-0.019-0.104-0.058-0.159c-0.325,0.145-2.006,4.415-4.239,4.782
					c-1.507,0.248-1.956-1.09-2.037-1.592c-0.367-2.22,0.863-5.641,3.064-6.003c0.681-0.112,1.396,0.088,2.18,0.598
					C18.592,285.208,17.438,282.709,19.064,282.443z M13.393,293.932c-1.506,0.247-2.189,2.289-2.14,4.147l0.011,0.074
					c0.063,0.384,0.151,0.551,0.314,0.524c0.857-0.141,3.013-4.11,2.949-4.494C14.501,294.021,13.984,293.832,13.393,293.932z"/>
			</g>
			<g>
				<path fill="#FFFFFF" d="M19.819,298.657c-0.201-1.214-0.051-6.399,0.936-6.562c0.372-0.062,0.729,0.077,0.847,0.803
					c0.008,0.044,0.002,0.105,0.01,0.148c0.113,1.15,0.001,2.035-0.341,5.857c-0.03,0.461-0.233,0.721-0.572,0.777
					C20.14,299.773,19.93,299.336,19.819,298.657z M20.911,288.881c0.295-0.049,0.917,0.123,1.023,0.771
					c0.085,0.52-0.327,1.147-0.74,1.217c-0.4,0.065-0.861-0.345-0.952-0.891C20.154,289.445,20.409,288.963,20.911,288.881z"/>
			</g>
			<g>
				<path fill="#FFFFFF" d="M25.807,303.212c-0.502-3.047,0.255-5.917,0.243-5.99l-0.009-0.06c-0.082-0.032-0.143-0.038-0.203-0.026
					c-0.133,0.021-0.269,0.12-0.653,0.183c-1.508,0.248-2.169-1.101-2.333-2.092c-0.194-1.168,0.021-4.573,1.189-4.767
					c0.37-0.061,0.677,0.239,0.716,0.476c0.068,0.413-0.358,0.591-0.424,0.937c-0.164,0.846-0.222,1.691-0.086,2.518
					c0.213,1.302,0.547,1.293,0.666,1.271l0.015-0.002c0.251-0.04,1.771-0.959,2.123-2.612c0.694-3.149,0.979-3.82,1.865-3.966
					c0.711-0.118,1.089,0.429,1.152,0.813c0.023,0.134-3.339,10.143-2.831,13.234c0.022,0.134,0.06,0.172,0.075,0.261
					c0.074,0.458-0.38,0.654-0.571,0.686C26.383,304.134,25.92,303.906,25.807,303.212z"/>
			</g>
			<g>
				<path fill="#FFFFFF" d="M32.156,295.214c0.025,0.146,0.144,0.78,0.512,0.721c0.711-0.118,2.088-2.819,2.315-4.573
					c0.186-1.443,0.596-1.813,1.026-1.885c0.147-0.023,0.902-0.057,1.039,0.771c0.097,0.591-0.679,4.272-0.451,5.661
					c0.106,0.65,0.829,0.151,0.939,0.818c0.063,0.369-0.218,0.9-0.821,1c-1.272,0.211-1.711-1.449-1.869-1.848
					c-0.503,0.629-1.025,1.428-1.987,1.586c-1.432,0.236-2.129-1.228-2.253-1.982c-0.275-1.67,0.353-5.782,2.424-6.123
					c0.28-0.046,1.506-0.066,1.728,1.278c0.066,0.399-0.242,0.466-0.272,0.471c-0.31,0.053-0.62-0.626-1.063-0.552
					C32.641,290.686,31.852,293.367,32.156,295.214z"/>
			</g>
			<g>
				<path fill="#FFFFFF" d="M38.694,295.457c-0.094-0.575-0.397-7.207,0.595-7.369c0.103-0.019,0.519-0.07,0.61,0.49
					c0.091,0.547,0.058,3.757,0.089,3.949c0.012,0.074,0.039,0.146,0.141,0.205c1.21-4.635,1.434-5.961,2.379-6.116
					c1.211-0.201,1.5,1.361,1.544,1.628c0.039,0.237,0.015,0.18,0.21,2.577c0.025,0.225,0.054,0.689-0.492,0.779
					c-0.813,0.135-1.08-1.112-1.209-1.622c-0.439,0.193-1.634,5.767-1.922,6.314c-0.15,0.282-0.355,0.514-0.68,0.566
					C38.967,297.022,38.726,295.649,38.694,295.457z"/>
			</g>
			<g>
				<path fill="#FFFFFF" d="M45.849,294.372c-0.199-1.213-0.053-6.4,0.938-6.563c0.369-0.06,0.728,0.078,0.846,0.802
					c0.008,0.045,0.003,0.105,0.011,0.149c0.112,1.152,0.001,2.036-0.342,5.857c-0.031,0.462-0.231,0.722-0.571,0.777
					C46.168,295.488,45.961,295.052,45.849,294.372z"/>
			</g>
			<g>
				<path fill="#FFFFFF" d="M50.852,289.902c0.754-1.414,1.485-5.727,2.877-5.955c0.368-0.06,1.081,0.019,1.273,1.188
					c0.08,0.488,0.063,0.657,0.076,3.875c0.201-0.246,2.538-6.446,2.937-7.148c0.21-0.385,0.549-0.639,0.889-0.694
					c0.09-0.015,1.053-0.158,1.265,1.129c0.241,1.462-1.009,8.456-0.627,10.762l0.025,0.162c0.062,0.371-0.165,0.636-0.493,0.689
					c-0.947,0.156-1.184-1.019-1.26-1.478l-0.016-0.088c-0.333-2.026-0.117-5.053-0.135-5.157l-0.019-0.117
					c-0.579,0.262-1.674,5.786-2.976,6.001c-0.74,0.122-1.114-0.394-1.271-1.354c-0.114-0.694-0.129-1.878-0.151-3.59
					c-0.521,0.163-2.09,5.933-2.122,6.014c-0.135,0.28-0.369,0.44-0.679,0.492c-0.858,0.141-1.125-0.834-1.184-1.187
					c-0.223-1.36-0.357-6.973,0.855-7.17c0.666-0.111,0.766,0.495,0.786,0.627C50.947,287.168,50.933,287.247,50.852,289.902z"/>
			</g>
		</g>
		<g>
			<path fill="#FFFFFF" d="M32.295,278.795c0,0,0.082-0.12,0.106-0.179c0.025-0.057,0.015-0.14-0.052-0.173
				c-0.067-0.034-0.149-0.067-0.323,0.154c0,0-1.187,1.247-1.187,3.596c0,2.35,0.859,4.121,1.232,4.648
				c0.37,0.524,0.488,0.615,0.591,0.619c0.099,0.004,0.232-0.129,0.103-0.301c-0.13-0.174-0.471-0.774-0.766-1.473
				c0,0-0.686-1.606-0.686-3.508c0-1.899,0.65-2.854,0.744-3.017C32.152,279.003,32.295,278.795,32.295,278.795"/>
			<path fill="#FFFFFF" d="M34.92,277.304c-1.616,0-2.707,1.885-2.976,2.757c-0.271,0.875-0.273,1.254-0.273,1.706
				s0.169,1.213,0.476,1.635c0.308,0.423,0.436,0.483,0.513,0.556c0.079,0.072,0.211-0.133,0.055-0.338
				c-0.157-0.206-0.592-0.634-0.592-2.263c0-1.631,1.175-3.36,2.497-3.36c1.321,0,2.796,1.731,2.796,4.3c0,2.566-1,4.064-1,4.064
				s-0.353-0.507-0.51-0.734c-0.159-0.228-0.25-0.368-0.25-0.368s0.38-0.504,0.542-0.919c0.163-0.416,0.276-0.849,0.276-1.383
				c0-0.535-0.336-0.724-0.536-0.724c-0.202,0-0.539,0.206-0.783,0.592c-0.246,0.383-0.308,0.495-0.308,0.495s-0.15-0.86-0.188-1.42
				c-0.039-0.562-0.129-1.623-0.079-2.195c0.054-0.573,0.13-0.778,0.15-0.917c0.021-0.137,0.045-0.29-0.109-0.313
				c-0.154-0.023-0.223,0.095-0.277,0.333c-0.054,0.235-0.213,0.843-0.213,1.417c0,0.573,0,1.314,0.021,1.823
				c0.023,0.511,0.12,1.066,0.155,1.587c0.035,0.523,0.06,1.775,0.06,2.114s-0.034,0.767-0.081,1.106
				c-0.047,0.336-0.12,0.491-0.134,0.564c-0.013,0.072,0.042,0.158,0.146,0.101c0.106-0.056,0.194-0.188,0.301-0.532
				c0.106-0.349,0.218-0.995,0.242-1.217c0.026-0.223,0.032-0.325,0.032-0.325s0.392,0.192,0.631,0.672
				c0.241,0.479,0.396,0.737,0.357,0.834c-0.038,0.097-0.206,0.358-0.512,0.509c-0.302,0.151-0.77,0.267-1.12,0.267
				c-0.346,0-0.668-0.046-0.668-0.046s-0.194-0.043-0.261-0.019c-0.071,0.025-0.104,0.178,0.036,0.271
				c0.139,0.094,0.495,0.157,0.862,0.157c0.366,0,1.346-0.128,2.094-0.883c0.75-0.752,1.669-2.153,1.669-4.836
				S36.541,277.304,34.92,277.304 M35.426,285.053c-0.396,0.273-0.511,0.299-0.511,0.299l-0.012-1.472c0,0,0.223-0.502,0.484-0.711
				c0.261-0.212,0.598-0.224,0.598,0.477S35.819,284.777,35.426,285.053"/>
		</g>
		<g>
			<path fill="#FFFFFF" d="M30.397,303.559c-0.023-0.205,0.15-0.419,0.368-0.441c0.213-0.022,0.442,0.143,0.466,0.354
				c0.021,0.188-0.114,0.403-0.297,0.425C30.752,303.913,30.413,303.724,30.397,303.559z"/>
			<path fill="#FFFFFF" d="M33.504,299.685c0.388-0.04,0.755,0.203,0.796,0.596c0.02,0.163-0.039,0.48-0.233,0.502
				c-0.249,0.025-0.203-0.413-0.422-0.39c-0.543,0.059-1.419,1.541-1.382,1.902c0.016,0.141,0.157,0.155,0.43,0.127l0.037-0.004
				c0.847-0.139,1.54-0.604,1.661-0.616c0.145-0.016,0.244,0.107,0.255,0.21c0.042,0.4-1.47,1.149-2.148,1.22
				c-0.586,0.063-0.998-0.241-1.052-0.745C31.352,301.598,32.553,299.787,33.504,299.685z"/>
			<path fill="#FFFFFF" d="M35.149,301.915c-0.014-0.138-0.071-1.351,0.654-2.197c0.13-0.157,0.01-0.528,0.567-0.588
				c0.374-0.04,1.322,0.233,1.404,1.001c0.002,0.024,0.004,0.042,0.002,0.067v0.013c0.088,0.823-0.732,2.544-1.641,2.642
				C35.906,302.877,35.245,302.818,35.149,301.915z M35.902,301.75c0.026,0.12,0.05,0.351,0.182,0.335
				c0.345-0.035,1.075-1.172,1.001-1.862c-0.027-0.262-0.305-0.459-0.415-0.445C36.642,299.781,35.896,299.969,35.902,301.75z"/>
			<path fill="#FFFFFF" d="M38.892,300.68c0.338-0.556,0.734-2.287,1.305-2.348c0.151-0.017,0.437,0.033,0.488,0.512
				c0.022,0.198,0.012,0.268-0.06,1.573c0.088-0.097,1.18-2.556,1.358-2.832c0.094-0.152,0.236-0.245,0.376-0.261
				c0.035-0.005,0.429-0.04,0.487,0.487c0.061,0.6-0.606,3.404-0.506,4.349l0.007,0.066c0.017,0.152-0.082,0.255-0.216,0.269
				c-0.388,0.042-0.457-0.441-0.477-0.629l-0.004-0.035c-0.088-0.831,0.07-2.052,0.065-2.095l-0.004-0.049
				c-0.244,0.095-0.814,2.308-1.347,2.365c-0.303,0.032-0.443-0.186-0.485-0.58c-0.029-0.283-0.009-0.763,0.021-1.458
				c-0.214,0.055-0.983,2.358-0.999,2.39c-0.062,0.111-0.159,0.17-0.287,0.184c-0.351,0.037-0.435-0.364-0.452-0.51
				c-0.06-0.557,0.018-2.835,0.514-2.888c0.271-0.027,0.298,0.22,0.304,0.274C38.993,299.573,38.983,299.605,38.892,300.68z"/>
		</g>
		<g>
			<polygon fill="#FFFFFF" points="41.914,273.17 40.56,275.918 40.383,276.145 41.369,276.632 41.444,276.354 42.8,273.607 			"/>
			<polygon fill="#FFFFFF" points="42.982,273.236 43.263,272.667 43.437,272.44 42.452,271.954 42.378,272.23 42.099,272.8 			"/>
		</g>
	</g>
</g>
</svg>
